<svg width="29" height="21" viewBox="0 0 29 21" fill="none" xmlns="http://www.w3.org/2000/svg">
<path d="M4.83203 20.6992H24.8711C27.4023 20.6992 28.7148 19.3867 28.7148 16.8906V4.22266C28.7148 1.71484 27.4023 0.414062 24.8711 0.414062H4.83203C2.30078 0.414062 0.988281 1.71484 0.988281 4.22266V16.8906C0.988281 19.3984 2.30078 20.6992 4.83203 20.6992ZM3.28516 4.42188C3.28516 3.28516 3.88281 2.71094 4.97266 2.71094H24.7305C25.8086 2.71094 26.418 3.28516 26.418 4.42188V5.27734H3.28516V4.42188ZM4.97266 18.4023C3.88281 18.4023 3.28516 17.8281 3.28516 16.6914V8.00781H26.418V16.6914C26.418 17.8281 25.8086 18.4023 24.7305 18.4023H4.97266ZM6.56641 16.2695H9.4375C10.1172 16.2695 10.5859 15.8125 10.5859 15.1445V12.9766C10.5859 12.3203 10.1172 11.8516 9.4375 11.8516H6.56641C5.875 11.8516 5.40625 12.3203 5.40625 12.9766V15.1445C5.40625 15.8125 5.875 16.2695 6.56641 16.2695Z" fill="black"/>
</svg>
