<svg width="47" height="23" viewBox="0 0 47 23" fill="none" xmlns="http://www.w3.org/2000/svg">
<path d="M23.5469 11.6445C26.3711 11.6445 28.668 9.14844 28.668 6.08984C28.668 3.06641 26.3945 0.664062 23.5469 0.664062C20.7227 0.664062 18.4141 3.10156 18.4141 6.10156C18.4258 9.16016 20.7109 11.6445 23.5469 11.6445ZM9.95312 11.9141C12.4258 11.9141 14.418 9.72266 14.418 7.02734C14.418 4.39062 12.4258 2.25781 9.95312 2.25781C7.51562 2.25781 5.48828 4.42578 5.5 7.03906C5.5 9.73438 7.50391 11.9141 9.95312 11.9141ZM37.1172 11.9141C39.5781 11.9141 41.5703 9.73438 41.582 7.03906C41.5938 4.42578 39.5664 2.25781 37.1172 2.25781C34.6562 2.25781 32.6523 4.39062 32.6523 7.02734C32.6523 9.72266 34.6562 11.9141 37.1172 11.9141ZM23.5469 9.62891C21.918 9.62891 20.5469 8.08203 20.5469 6.10156C20.5352 4.17969 21.9062 2.69141 23.5469 2.69141C25.1875 2.69141 26.5469 4.15625 26.5469 6.08984C26.5469 8.05859 25.1758 9.62891 23.5469 9.62891ZM9.95312 9.92188C8.62891 9.92188 7.49219 8.64453 7.49219 7.03906C7.49219 5.50391 8.61719 4.25 9.95312 4.25C11.3242 4.25 12.4375 5.48047 12.4375 7.02734C12.4375 8.64453 11.3008 9.92188 9.95312 9.92188ZM37.1172 9.92188C35.7695 9.92188 34.6445 8.64453 34.6445 7.02734C34.6445 5.48047 35.7578 4.25 37.1172 4.25C38.4648 4.25 39.5898 5.50391 39.5898 7.03906C39.5898 8.64453 38.4531 9.92188 37.1172 9.92188ZM3.50781 22.6836H12.6133C11.9805 22.3203 11.5469 21.4766 11.6289 20.7031H3.37891C3.15625 20.7031 3.0625 20.6094 3.0625 20.3984C3.0625 17.7031 6.22656 15.125 9.95312 15.125C11.2656 15.125 12.5898 15.4531 13.6094 16.0273C13.9961 15.4648 14.4883 14.9844 15.1211 14.5625C13.6328 13.6367 11.7812 13.1445 9.95312 13.1445C4.99609 13.1445 0.988281 16.6953 0.988281 20.5859C0.988281 21.9688 1.83203 22.6836 3.50781 22.6836ZM43.5742 22.6836C45.25 22.6836 46.0938 21.9688 46.0938 20.5859C46.0938 16.6953 42.0742 13.1445 37.1289 13.1445C35.3008 13.1445 33.4492 13.6367 31.9609 14.5625C32.5938 14.9844 33.0859 15.4648 33.4727 16.0273C34.4922 15.4531 35.8047 15.125 37.1289 15.125C40.8555 15.125 44.0195 17.7031 44.0195 20.3984C44.0195 20.6094 43.9258 20.7031 43.7031 20.7031H35.4531C35.5352 21.4766 35.1016 22.3203 34.4688 22.6836H43.5742ZM16.2344 22.6836H30.8477C32.8633 22.6836 33.8359 22.0508 33.8359 20.6797C33.8359 17.4688 29.8281 13.1562 23.5352 13.1562C17.2539 13.1562 13.2344 17.4688 13.2344 20.6797C13.2344 22.0508 14.207 22.6836 16.2344 22.6836ZM15.8477 20.6562C15.5664 20.6562 15.4609 20.5742 15.4609 20.3516C15.4609 18.5586 18.3672 15.1836 23.5352 15.1836C28.7148 15.1836 31.6211 18.5586 31.6211 20.3516C31.6211 20.5742 31.5156 20.6562 31.2344 20.6562H15.8477Z" fill="black"/>
</svg>
