<svg width="30" height="27" viewBox="0 0 30 27" fill="none" xmlns="http://www.w3.org/2000/svg">
<path d="M7.32812 26.082H23.1836C24.9648 26.082 26.0078 25.0625 26.0078 23.3281V12.3477L27.4375 13.543C27.7188 13.7773 28.0352 13.9766 28.3984 13.9766C29.0781 13.9766 29.5938 13.5547 29.5938 12.8867C29.5938 12.4883 29.4414 12.1719 29.1367 11.9258L26.0078 9.28906V4.30859C26.0078 3.78125 25.668 3.44141 25.1406 3.44141H23.5586C23.043 3.44141 22.6914 3.78125 22.6914 4.30859V6.5L16.9492 1.67188C15.9414 0.828125 14.6758 0.828125 13.6562 1.67188L1.44531 11.9258C1.14062 12.1836 0.988281 12.5234 0.988281 12.8516C0.988281 13.4609 1.44531 13.9766 2.19531 13.9766C2.55859 13.9766 2.875 13.7773 3.15625 13.543L4.50391 12.418V23.3281C4.50391 25.0625 5.54688 26.082 7.32812 26.082ZM18.6602 16.0977C18.6602 15.5469 18.3086 15.1953 17.7578 15.1953H12.8242C12.2852 15.1953 11.9102 15.5469 11.9102 16.0977V23.7852H7.9375C7.19922 23.7852 6.80078 23.375 6.80078 22.6367V10.4844L14.8047 3.78125C15.1211 3.5 15.4844 3.5 15.8008 3.78125L23.7109 10.4141V22.6367C23.7109 23.375 23.3125 23.7852 22.5742 23.7852H18.6602V16.0977Z" fill="black"/>
</svg>
