<svg width="28" height="21" viewBox="0 0 28 21" fill="none" xmlns="http://www.w3.org/2000/svg">
<path d="M4.83203 20.8281H23.7344C25.9727 20.8281 27.2734 19.5273 27.2734 17.0312V4.08203C27.2734 1.58594 25.9609 0.273438 23.4297 0.273438H4.53906C2.30078 0.273438 0.988281 1.57422 0.988281 4.08203V17.0312C0.988281 19.5391 2.30078 20.8281 4.83203 20.8281ZM12.8008 10.9727L4.24609 2.51172C4.42188 2.47656 4.62109 2.45312 4.83203 2.45312H23.4297C23.6641 2.45312 23.8633 2.47656 24.0508 2.52344L15.4961 10.9727C15.0039 11.4648 14.582 11.6641 14.1484 11.6641C13.7148 11.6641 13.293 11.4531 12.8008 10.9727ZM3.14453 4.22266L9.54297 10.5156L3.14453 16.8555V4.22266ZM18.7539 10.5156L25.1289 4.25781V16.832L18.7539 10.5156ZM4.83203 18.6602C4.60938 18.6602 4.41016 18.6367 4.22266 18.5898L10.9609 11.9102L11.6055 12.5547C12.4492 13.3867 13.2812 13.7383 14.1484 13.7383C15.0156 13.7383 15.8477 13.3867 16.6914 12.5547L17.3359 11.9102L24.0625 18.5781C23.875 18.6367 23.6641 18.6602 23.4297 18.6602H4.83203Z" fill="black"/>
</svg>
