<svg width="1920" height="2670" viewBox="0 0 1920 2670" fill="none" xmlns="http://www.w3.org/2000/svg">
<path fill-rule="evenodd" clip-rule="evenodd" d="M1204.34 903.289C1425.41 899.73 1643.74 830.847 1842.66 862.409C2037.88 893.385 2137.83 978.532 2122.46 1048.97C2107.68 1116.68 1810.56 1145.17 1766.46 1211.53C1727.65 1269.93 1949.3 1323.9 1901.41 1381.59C1849.64 1443.95 1707.17 1519.4 1508.63 1522.1C1293.97 1525.03 1228.15 1404.84 1016.08 1393.66C749.311 1379.6 499.808 1484.64 244.862 1455.49C-6.07581 1426.81 -208.797 1338.31 -223.395 1251.98C-238.031 1165.42 16.2076 1102.26 173.289 1032.2C299.916 975.728 404.738 907.416 605.401 882.327C796.687 858.41 999.638 906.584 1204.34 903.289Z" fill="#242332"/>
<rect x="-78" y="1126" width="2237" height="1544" fill="#242332"/>
<path d="M1440.32 778.998C1690.04 721.151 1537.88 689.786 1426.51 652.25H1519.63C1621.79 689.113 1803.2 772.534 1711.51 811.316C1619.82 850.098 1891.5 850.5 1936.5 883.5L-23 1103.16C78.8215 1074.37 22 540.656 319 672.656C563.6 781.367 753.667 938.064 1440.32 778.998Z" fill="#242332"/>
<path d="M1389 818.156C1656.67 756.073 1546.18 694.83 1426.8 654.545H1526.62C1636.13 694.107 1830.58 783.637 1732.3 825.258C1634.01 866.88 1738.15 922.087 1802.5 944.487L-48 1078.28C61.1459 1047.39 58 609.656 206.5 636.156C486.063 686.044 652.951 988.87 1389 818.156Z" stroke="#242332"/>
<path d="M1239.53 230.75C1232.24 233.75 1222.58 237.46 1210.76 241.29C1210.76 241.29 1134.64 254.29 1120.84 343.8C1120.84 343.8 1106.22 393.24 1171.84 420.8L1224.52 445.92C1224.52 445.92 1297.52 481.7 1293.69 555.65C1292.78 571.192 1296.19 586.683 1303.53 600.41C1315.14 621.75 1337.84 646.18 1380.93 646.29C1380.93 646.29 1426.71 657.84 1435.63 610.43C1435.63 610.43 1454.37 512.78 1520.16 516.43L1625.06 512.78C1625.06 512.78 1659.06 522.5 1686.94 496.17C1686.94 496.17 1711.16 479.96 1707.52 443.08C1707.52 443.08 1703.35 418.37 1723.06 408.64C1723.06 408.64 1802.22 357.18 1786.27 328.41C1786.27 328.41 1718.46 278.17 1716.84 255.88C1716.84 255.88 1709.84 238.36 1707.84 212.35C1707.14 203.001 1707.36 193.607 1708.48 184.3C1710.15 169.97 1710.98 137.1 1685.23 127.93C1685.23 127.93 1669.66 113.25 1619.91 129.46C1619.91 129.46 1545.61 161.88 1516.76 103.12L1495.94 62.8C1495.94 62.8 1478.19 6.67 1410.94 7.49C1410.94 7.49 1351.38 10.36 1339.22 75.38C1339.22 75.38 1331.66 156.11 1275.78 207.66C1265.15 217.429 1252.88 225.246 1239.53 230.75Z" fill="#0071F2"/>
<path opacity="0.7" d="M1239.53 230.75C1232.24 233.75 1222.58 237.46 1210.76 241.29C1210.76 241.29 1134.64 254.29 1120.84 343.8C1120.84 343.8 1106.22 393.24 1171.84 420.8L1224.52 445.92C1224.52 445.92 1297.52 481.7 1293.69 555.65C1292.78 571.192 1296.19 586.683 1303.53 600.41C1315.14 621.75 1337.84 646.18 1380.93 646.29C1380.93 646.29 1426.71 657.84 1435.63 610.43C1435.63 610.43 1454.37 512.78 1520.16 516.43L1625.06 512.78C1625.06 512.78 1659.06 522.5 1686.94 496.17C1686.94 496.17 1711.16 479.96 1707.52 443.08C1707.52 443.08 1703.35 418.37 1723.06 408.64C1723.06 408.64 1802.22 357.18 1786.27 328.41C1786.27 328.41 1718.46 278.17 1716.84 255.88C1716.84 255.88 1709.84 238.36 1707.84 212.35C1707.14 203.001 1707.36 193.607 1708.48 184.3C1710.15 169.97 1710.98 137.1 1685.23 127.93C1685.23 127.93 1669.66 113.25 1619.91 129.46C1619.91 129.46 1545.61 161.88 1516.76 103.12L1495.94 62.8C1495.94 62.8 1478.19 6.67 1410.94 7.49C1410.94 7.49 1351.38 10.36 1339.22 75.38C1339.22 75.38 1331.66 156.11 1275.78 207.66C1265.15 217.429 1252.88 225.246 1239.53 230.75Z" fill="white"/>
<path d="M1128.89 329.61C1128.89 329.61 1116.3 328.79 1117.81 340.85C1117.81 340.85 1121.1 357.85 1141.32 362.19L1146.8 358.49L1128.89 329.61Z" fill="#F9B499"/>
<path d="M1141.48 363L1141.17 362.93C1120.69 358.58 1117.1 341.18 1117.07 341C1116.6 337.24 1117.37 334.29 1119.35 332.19C1122.81 328.51 1128.69 328.84 1128.94 328.86H1129.32L1147.82 358.69L1141.48 363ZM1128.42 330.36C1127.09 330.36 1122.93 330.58 1120.42 333.23C1118.77 334.99 1118.13 337.52 1118.54 340.77C1118.54 340.88 1121.95 357.14 1141.15 361.39L1145.76 358.28L1128.44 330.36H1128.42Z" fill="#242332"/>
<path d="M1296.56 429.3L1206.84 446.76C1205.05 447.102 1203.21 446.895 1201.54 446.166C1199.88 445.438 1198.47 444.223 1197.51 442.68L1091 270.93C1083.79 259.84 1092.18 254.88 1092.18 254.88L1092.89 255.21C1092.12 257.21 1092.41 260.21 1094.83 264.65L1201.33 437.89C1202.05 439.071 1203.12 440.005 1204.39 440.569C1205.65 441.133 1207.06 441.301 1208.42 441.05L1296.76 424.71C1297.89 424.505 1298.93 423.99 1299.78 423.223C1300.63 422.457 1301.25 421.469 1301.57 420.37C1304.34 428.12 1296.56 429.3 1296.56 429.3Z" fill="#0071F2"/>
<path d="M1205.16 447.68C1203.5 447.679 1201.87 447.255 1200.42 446.449C1198.97 445.642 1197.75 444.479 1196.87 443.07L1090.35 271.33C1087.73 267.33 1086.8 263.56 1087.58 260.24C1088.16 257.775 1089.67 255.628 1091.79 254.24L1092.13 254.04L1093.83 254.83L1093.58 255.49C1092.79 257.6 1093.42 260.57 1095.48 264.3L1202 437.5C1202.65 438.547 1203.6 439.375 1204.72 439.875C1205.85 440.374 1207.1 440.522 1208.31 440.3L1296.62 424C1297.61 423.816 1298.53 423.362 1299.27 422.687C1300.02 422.013 1300.56 421.145 1300.84 420.18L1301.5 417.98L1302.27 420.14C1303.19 422.71 1303.13 424.91 1302.08 426.67C1300.44 429.41 1297 430.02 1296.69 430.07L1207 447.5C1206.39 447.62 1205.78 447.68 1205.16 447.68ZM1091.87 256C1090.44 257.185 1089.44 258.798 1089 260.6C1088.33 263.51 1089.2 266.85 1091.58 270.52L1198.15 442.28C1199.04 443.688 1200.33 444.796 1201.85 445.46C1203.38 446.123 1205.07 446.312 1206.7 446L1296.44 428.53C1296.44 428.53 1299.44 428.04 1300.79 425.83C1301.35 424.83 1301.54 423.667 1301.34 422.54C1300.83 423.292 1300.17 423.935 1299.4 424.431C1298.64 424.927 1297.79 425.267 1296.89 425.43L1208.55 441.77C1207.04 442.043 1205.48 441.855 1204.08 441.231C1202.67 440.607 1201.49 439.575 1200.68 438.27L1094.18 265.05C1092.2 261.45 1091.43 258.433 1091.87 256Z" fill="#242332"/>
<path d="M1603.89 475.51C1602.53 476.76 1602.15 478.18 1603.45 479.75C1604.21 480.605 1605.24 481.173 1606.37 481.36C1611.29 482.27 1627.49 485.75 1627.55 491.94C1627.55 491.94 1627.61 503.75 1603.48 500.73C1603.48 500.73 1591.38 499.51 1583.75 501.73C1583.59 501.769 1583.43 501.82 1583.27 501.88C1582.58 502.088 1581.91 502.355 1581.27 502.68C1580.97 502.822 1580.67 502.982 1580.39 503.16C1579.99 503.408 1579.62 503.696 1579.28 504.02C1579.2 504.075 1579.13 504.139 1579.06 504.21C1578.61 504.644 1578.26 505.165 1578.02 505.741C1577.78 506.318 1577.67 506.937 1577.68 507.56C1577.67 507.717 1577.67 507.873 1577.68 508.03C1577.68 508.14 1577.68 508.24 1577.68 508.36C1577.67 508.38 1577.67 508.4 1577.68 508.42C1577.91 509.323 1578.3 510.182 1578.81 510.96C1578.82 510.997 1578.84 511.03 1578.87 511.06C1580.14 513.06 1582.68 515.77 1587.71 517.88C1587.82 517.938 1587.93 517.988 1588.05 518.03L1588.46 518.2C1589.89 518.86 1594.59 521.27 1592.46 523.81C1592.46 523.81 1592.46 523.87 1592.39 523.88C1591.45 524.791 1590.31 525.475 1589.07 525.88C1588.96 525.88 1588.86 525.96 1588.75 526C1587.5 526.441 1586.22 526.808 1584.92 527.1C1584.92 527.1 1579.72 527.3 1572.92 526.86H1572.71H1572.6C1570.79 526.65 1568.97 526.65 1567.16 526.86C1567.09 526.85 1567.02 526.85 1566.95 526.86C1564.36 527.105 1561.89 528.111 1559.87 529.75H1559.75C1553.59 528.851 1547.39 528.267 1541.17 528C1541.17 528 1541.17 528 1541.17 527.92C1541.32 527.244 1541.5 526.577 1541.72 525.92C1544.89 516.8 1554.48 513.43 1556.39 512.85C1556.49 512.811 1556.59 512.781 1556.7 512.76H1556.78C1556.87 512.76 1556.97 512.68 1557.06 512.64C1574.82 505.17 1576.31 499.21 1576.31 499.21C1576.93 498.341 1577.42 497.388 1577.77 496.38C1578.38 494.6 1577.95 493.5 1577.09 492.83C1576.97 492.72 1576.84 492.629 1576.69 492.56C1574.59 491.38 1570.86 491.96 1570.86 491.96C1570.78 491.954 1570.69 491.954 1570.61 491.96H1570.11C1567.48 492.291 1564.81 492.261 1562.19 491.87C1562.96 490.87 1597.83 443.5 1632.19 455.43C1633.69 456.205 1635 457.289 1636.05 458.61C1637.96 461.36 1637.37 465.45 1623.14 469.01C1623.09 469.06 1608.31 471.39 1603.89 475.51Z" fill="#0071F2"/>
<g opacity="0.2">
<path d="M1603.89 475.51C1602.53 476.76 1602.15 478.18 1603.45 479.75C1604.21 480.605 1605.24 481.173 1606.37 481.36C1611.29 482.27 1627.49 485.75 1627.55 491.94C1627.55 491.94 1627.61 503.75 1603.48 500.73C1603.48 500.73 1591.38 499.51 1583.75 501.73C1583.59 501.769 1583.43 501.82 1583.27 501.88C1582.58 502.088 1581.91 502.355 1581.27 502.68C1580.97 502.822 1580.67 502.982 1580.39 503.16C1579.99 503.408 1579.62 503.696 1579.28 504.02C1579.2 504.075 1579.13 504.139 1579.06 504.21C1578.61 504.644 1578.26 505.165 1578.02 505.741C1577.78 506.318 1577.67 506.937 1577.68 507.56C1577.67 507.717 1577.67 507.873 1577.68 508.03C1577.68 508.14 1577.68 508.24 1577.68 508.36C1577.67 508.38 1577.67 508.4 1577.68 508.42C1577.91 509.323 1578.3 510.182 1578.81 510.96C1578.82 510.997 1578.84 511.03 1578.87 511.06C1580.14 513.06 1582.68 515.77 1587.71 517.88C1587.82 517.938 1587.93 517.988 1588.05 518.03L1588.46 518.2C1589.89 518.86 1594.59 521.27 1592.46 523.81C1592.46 523.81 1592.46 523.87 1592.39 523.88C1591.45 524.791 1590.31 525.475 1589.07 525.88C1588.96 525.88 1588.86 525.96 1588.75 526C1587.5 526.441 1586.22 526.808 1584.92 527.1C1584.92 527.1 1579.72 527.3 1572.92 526.86H1572.71H1572.6C1570.79 526.65 1568.97 526.65 1567.16 526.86C1567.09 526.85 1567.02 526.85 1566.95 526.86C1564.36 527.105 1561.89 528.111 1559.87 529.75H1559.75C1553.59 528.851 1547.39 528.267 1541.17 528C1541.17 528 1541.17 528 1541.17 527.92C1541.32 527.244 1541.5 526.577 1541.72 525.92C1544.89 516.8 1554.48 513.43 1556.39 512.85C1556.49 512.811 1556.59 512.781 1556.7 512.76H1556.78C1556.87 512.76 1556.97 512.68 1557.06 512.64C1574.82 505.17 1576.31 499.21 1576.31 499.21C1576.93 498.341 1577.42 497.388 1577.77 496.38C1578.38 494.6 1577.95 493.5 1577.09 492.83C1576.97 492.72 1576.84 492.629 1576.69 492.56C1574.59 491.38 1570.86 491.96 1570.86 491.96C1570.78 491.954 1570.69 491.954 1570.61 491.96H1570.11C1567.48 492.291 1564.81 492.261 1562.19 491.87C1562.96 490.87 1597.83 443.5 1632.19 455.43C1633.69 456.205 1635 457.289 1636.05 458.61C1637.96 461.36 1637.37 465.45 1623.14 469.01C1623.09 469.06 1608.31 471.39 1603.89 475.51Z" fill="black"/>
</g>
<path d="M1583.39 462.37C1560.27 469.27 1554.47 478.86 1554.47 478.86C1549.8 492.86 1566.31 492.31 1570.1 492.01H1570.6H1570.85C1572.81 491.985 1574.77 492.186 1576.68 492.61C1577.04 492.74 1577.08 492.83 1577.08 492.88C1577.67 493.965 1577.9 495.205 1577.76 496.43C1576.83 504.53 1559.76 511.61 1557.05 512.69C1556.96 512.69 1556.86 512.76 1556.77 512.81H1556.69C1556.58 512.831 1556.48 512.861 1556.38 512.9C1553.01 513.616 1549.88 515.202 1547.32 517.501C1544.75 519.799 1542.83 522.729 1541.74 526C1541.5 526.651 1541.32 527.32 1541.19 528V528.14L1527.97 527.49C1535.15 527.73 1539.2 528.03 1539.2 528.03C1539.72 508.53 1528.09 514.35 1528.09 514.35C1517.54 517.35 1520.55 509.83 1520.55 509.83C1522.69 503.42 1522.55 499.53 1521.8 497.21C1526.15 488.02 1526.89 482.91 1526.99 481.72C1526.99 481.72 1526.99 481.72 1526.99 481.67C1527 481.593 1527 481.517 1526.99 481.44C1527.05 481.13 1527.11 480.81 1527.19 480.49C1527.18 480.43 1527.18 480.37 1527.19 480.31C1529.53 469.054 1532.62 457.969 1536.45 447.13C1550.54 406.3 1571.73 398.53 1579.45 397.05C1581.57 396.611 1583.78 396.986 1585.64 398.1C1586.64 398.673 1587.46 399.519 1588 400.54C1592.2 408.65 1573.21 424.46 1566.54 429.66C1565.64 430.349 1564.83 431.145 1564.13 432.03C1563.17 433.182 1562.42 434.501 1561.93 435.92C1560.24 440.83 1563.18 442.59 1566.03 443.21C1568.15 443.66 1570.55 443.77 1572.44 442.67C1576.92 439.921 1582.04 438.4 1587.29 438.26C1589.3 438.212 1591.29 438.704 1593.05 439.685C1594.81 440.667 1596.27 442.101 1597.29 443.84C1597.51 444.242 1597.71 444.656 1597.88 445.08C1601.91 455.35 1583.39 462.37 1583.39 462.37Z" fill="#0071F2"/>
<path d="M1416.18 485.53C1416.18 485.53 1420.98 469.06 1434.55 478.11L1443.99 484.49C1443.99 484.49 1451.99 492.55 1459.11 484.35C1460.56 482.603 1461.65 480.588 1462.33 478.42C1464.81 470.91 1474.72 445.62 1493.74 452.25C1493.74 452.25 1509.86 454.99 1506.14 476.35C1506.14 476.35 1500.55 492.78 1503.07 499.02C1503.28 499.472 1503.58 499.87 1503.96 500.185C1504.35 500.5 1504.8 500.723 1505.28 500.836C1505.77 500.949 1506.27 500.949 1506.75 500.837C1507.23 500.725 1507.69 500.504 1508.07 500.19C1511.4 497.52 1519.68 491.77 1522.07 498.4C1522.07 498.4 1523.54 500.73 1520.52 509.78C1520.52 509.78 1519.81 513.93 1522.43 514.87C1522.43 514.87 1524.43 516.42 1529.28 513.87C1529.28 513.87 1539.7 510 1539.16 528C1539.16 528 1510.72 527.14 1405.16 531.66L1434.57 503.76C1434.57 503.76 1439.57 490.01 1428.79 484.82C1428.77 484.81 1425 483.9 1416.18 485.53Z" fill="#0071F2"/>
<g opacity="0.2">
<path d="M1416.18 485.53C1416.18 485.53 1420.98 469.06 1434.55 478.11L1443.99 484.49C1443.99 484.49 1451.99 492.55 1459.11 484.35C1460.56 482.603 1461.65 480.588 1462.33 478.42C1464.81 470.91 1474.72 445.62 1493.74 452.25C1493.74 452.25 1509.86 454.99 1506.14 476.35C1506.14 476.35 1500.55 492.78 1503.07 499.02C1503.28 499.472 1503.58 499.87 1503.96 500.185C1504.35 500.5 1504.8 500.723 1505.28 500.836C1505.77 500.949 1506.27 500.949 1506.75 500.837C1507.23 500.725 1507.69 500.504 1508.07 500.19C1511.4 497.52 1519.68 491.77 1522.07 498.4C1522.07 498.4 1523.54 500.73 1520.52 509.78C1520.52 509.78 1519.81 513.93 1522.43 514.87C1522.43 514.87 1524.43 516.42 1529.28 513.87C1529.28 513.87 1539.7 510 1539.16 528C1539.16 528 1510.72 527.14 1405.16 531.66L1434.57 503.76C1434.57 503.76 1439.57 490.01 1428.79 484.82C1428.77 484.81 1425 483.9 1416.18 485.53Z" fill="black"/>
</g>
<path d="M1492.61 518.94L1491.12 518.72C1491.28 517.63 1491.39 516.59 1491.46 515.65C1491.51 515.041 1491.39 514.43 1491.12 513.883C1490.85 513.336 1490.43 512.872 1489.92 512.54C1489.42 512.207 1488.84 512.016 1488.24 511.986C1487.64 511.956 1487.05 512.089 1486.52 512.37C1483.96 513.634 1481.23 514.536 1478.42 515.05H1478.31H1478.2C1477.29 514.972 1476.41 514.672 1475.63 514.177C1474.86 513.682 1474.22 513.007 1473.77 512.21C1470.05 505.81 1475.77 490.42 1478.35 484.1C1478.99 482.639 1479.27 481.042 1479.15 479.45C1479.06 478.45 1478.81 478.05 1478.61 477.99C1476.78 477.51 1470.51 485.5 1466.36 490.83C1465.41 492.05 1464.48 493.25 1463.58 494.38C1460.58 498.11 1457.68 499.95 1454.72 499.96C1453.71 499.933 1452.72 499.692 1451.82 499.252C1450.91 498.812 1450.11 498.184 1449.47 497.41L1450.66 496.49C1451.16 497.09 1451.79 497.578 1452.49 497.923C1453.2 498.267 1453.97 498.46 1454.75 498.49C1457.17 498.49 1459.75 496.81 1462.38 493.49L1465.15 489.96C1472.02 481.13 1476.41 475.8 1479.01 476.59C1479.94 476.87 1480.49 477.8 1480.64 479.36C1480.77 481.197 1480.46 483.039 1479.73 484.73C1477.73 489.5 1471.58 505.52 1475.05 511.5C1475.38 512.08 1475.84 512.573 1476.4 512.936C1476.96 513.3 1477.6 513.524 1478.26 513.59C1480.88 513.095 1483.42 512.251 1485.81 511.08C1486.58 510.673 1487.44 510.482 1488.3 510.526C1489.17 510.57 1490.01 510.848 1490.73 511.33C1491.47 511.808 1492.06 512.476 1492.45 513.265C1492.84 514.054 1493.01 514.933 1492.94 515.81C1492.89 516.74 1492.77 517.81 1492.61 518.94Z" fill="#242332"/>
<path d="M1497 522.26L1495.74 521.43C1495.74 521.43 1498.56 517.04 1497.14 509.93L1498.62 509.63C1500.19 517.39 1497.15 522.07 1497 522.26Z" fill="#242332"/>
<path d="M1541.93 528.81H1541.15H1539.66H1538.39V528.03C1538.57 521.29 1537.26 516.83 1534.6 515.13C1531.94 513.43 1528.42 515.03 1528.38 515.05C1524.28 516.23 1521.59 516.05 1520.25 514.56C1518.57 512.71 1519.75 509.7 1519.8 509.56C1521.95 503.12 1521.66 499.41 1521.04 497.44L1520.85 497.08L1521.02 496.65C1523.39 492.001 1525.11 487.048 1526.13 481.93L1526.43 480.36C1526.42 480.287 1526.42 480.213 1526.43 480.14C1526.65 478.8 1526.84 477.39 1526.98 476.01C1527.57 469.511 1528.61 463.062 1530.11 456.71C1536.23 431.71 1551.11 389.54 1582.28 388.42C1582.54 388.42 1587.04 388.48 1589.09 391.65C1590.53 393.86 1590.37 396.96 1588.63 400.86C1588.31 401.57 1587.93 402.32 1587.49 403.12C1587.4 403.3 1584.72 408.53 1573.49 418.92C1570.98 421.216 1568.84 423.875 1567.12 426.81C1566.09 428.488 1565.31 430.307 1564.8 432.21C1564.15 435.14 1565.37 435.9 1565.8 436.15C1566.16 436.362 1566.57 436.498 1566.98 436.549C1567.4 436.601 1567.83 436.567 1568.23 436.45C1571.95 435.599 1575.63 434.534 1579.23 433.26C1582.09 432.201 1585.11 431.676 1588.16 431.71C1592.64 431.8 1595.91 433.03 1597.63 435.28C1599.1 437.21 1599.45 439.86 1598.63 443.13C1598.7 443.828 1598.67 444.532 1598.53 445.22C1597.69 449.88 1592.73 458.88 1568.95 466.82C1568.87 466.87 1549.77 477.07 1554.84 486.82C1554.92 487.03 1555.74 489.31 1559.73 490.62C1560.45 490.849 1561.19 491.033 1561.94 491.17H1562.22C1564.78 491.537 1567.37 491.564 1569.94 491.25H1570.43H1570.59C1570.82 491.25 1574.59 490.65 1576.94 491.92C1577.15 492.019 1577.34 492.147 1577.51 492.3L1577.77 492.54C1578.52 493.27 1579.13 494.54 1578.41 496.67C1578.04 497.705 1577.54 498.687 1576.92 499.59C1576.56 500.59 1573.92 506.4 1557.28 513.38L1556.53 513.65C1554.69 514.21 1545.4 517.49 1542.36 526.25C1542.15 526.85 1541.98 527.461 1541.84 528.08L1541.93 528.81ZM1539.93 527.25H1540.58C1540.7 526.77 1540.85 526.26 1541.03 525.72C1544.31 516.25 1554.23 512.72 1556.18 512.16L1556.44 512.08C1556.38 512.08 1556.44 512.08 1556.57 512.08H1556.67C1573.78 504.89 1575.58 499.16 1575.6 499.08L1575.7 498.85C1576.28 498.038 1576.74 497.15 1577.07 496.21C1577.72 494.31 1576.92 493.69 1576.65 493.49L1576.23 493.21C1574.68 492.39 1571.92 492.59 1570.97 492.73H1570.8C1570.56 492.73 1570.38 492.78 1570.15 492.79C1567.75 493.07 1565.34 493.07 1562.94 492.79V493L1561.94 492.68C1561.06 492.536 1560.19 492.325 1559.34 492.05C1554.56 490.48 1553.57 487.52 1553.53 487.4C1547.82 476.4 1567.59 465.85 1568.44 465.4C1592.44 457.4 1596.44 448.4 1597.13 444.93C1597.25 444.368 1597.27 443.79 1597.2 443.22V443.05V442.88C1597.93 440.01 1597.68 437.75 1596.48 436.17C1594.68 433.81 1590.97 433.24 1588.17 433.17C1585.31 433.135 1582.46 433.63 1579.78 434.63C1576.12 435.924 1572.39 437.006 1568.6 437.87C1568 438.034 1567.38 438.075 1566.76 437.991C1566.15 437.907 1565.56 437.699 1565.03 437.38C1563.35 436.38 1562.79 434.46 1563.38 431.83C1563.92 429.78 1564.75 427.819 1565.86 426.01C1567.65 422.942 1569.9 420.161 1572.52 417.76C1583.52 407.61 1586.18 402.41 1586.2 402.36C1586.64 401.57 1587 400.86 1587.31 400.19C1588.83 396.79 1589.02 394.19 1587.88 392.42C1586.25 389.91 1582.39 389.88 1582.35 389.88C1552.25 390.96 1537.65 432.41 1531.62 457.01C1530.14 463.296 1529.11 469.679 1528.53 476.11C1528.39 477.52 1528.19 478.96 1527.95 480.4V480.59L1527.8 481.38L1528.02 481.6L1527.68 482.01C1526.65 487.219 1524.92 492.265 1522.54 497.01C1523.54 500.27 1523.06 504.6 1521.26 510.01C1521 510.68 1520.54 512.52 1521.41 513.48C1522.05 514.18 1523.68 514.77 1527.88 513.57C1527.88 513.57 1531.97 511.57 1535.44 513.77C1538.5 515.73 1540 520.27 1539.93 527.25Z" fill="#242332"/>
<path d="M1539.13 528.74L1527.91 528.19L1527.97 526.69C1535.08 526.93 1539.18 527.23 1539.22 527.23L1539.13 528.74Z" fill="#242332"/>
<path d="M1541.91 528.89L1539.13 528.74V527.23C1539.3 527.22 1539.48 527.22 1539.65 527.23C1540.15 527.23 1540.65 527.23 1541.15 527.23H1541.89L1541.91 528.89Z" fill="#242332"/>
<path d="M1562.93 492.98L1557.53 491.18L1562.89 491.17L1562.93 492.98Z" fill="#242332"/>
<path d="M1530.27 513.75C1528.97 509.44 1536.37 498.12 1540.89 491.75C1542.2 489.954 1543.33 488.035 1544.27 486.02C1546.93 479.831 1548.87 473.359 1550.06 466.73C1550.86 462.542 1551.33 458.3 1551.49 454.04C1551.91 440.64 1555.56 427.54 1562.12 415.85L1563.39 416.66C1556.97 428.125 1553.41 440.967 1553 454.1C1552.83 458.43 1552.35 462.742 1551.54 467C1550.33 473.748 1548.35 480.335 1545.64 486.63C1544.66 488.737 1543.48 490.746 1542.12 492.63C1534.91 502.76 1530.92 510.68 1531.71 513.3L1530.27 513.75Z" fill="#242332"/>
<path d="M1560.23 530.52L1559.09 530.44C1550.72 529.57 1544.68 529.02 1541.09 528.81C1540.59 528.81 1540.09 528.81 1539.73 528.81H1539.62V527.31H1540.54C1540.66 526.83 1540.81 526.32 1540.99 525.78C1544.27 516.31 1554.19 512.78 1556.14 512.22L1556.4 512.14C1556.34 512.14 1556.4 512.14 1556.53 512.14H1556.63C1573.74 504.95 1575.54 499.22 1575.56 499.14L1575.66 498.91C1576.24 498.098 1576.7 497.21 1577.03 496.27C1577.68 494.37 1576.88 493.75 1576.61 493.55L1576.19 493.27C1574.33 492.27 1570.96 492.79 1570.93 492.79H1570.76C1570.52 492.79 1570.34 492.84 1570.11 492.85C1567.71 493.13 1565.3 493.13 1562.9 492.85V493L1561.9 492.68C1561.02 492.536 1560.15 492.325 1559.3 492.05L1557.92 491.6L1559.29 490.6C1560.94 488.37 1590.68 448.75 1624.56 448.75C1624.9 448.75 1634.21 448.06 1637 452.27C1638.15 454 1638.05 456.27 1636.7 458.89L1636.64 459.05C1636.42 459.98 1634.13 465.5 1615.64 468.35C1611.2 469.58 1604.18 472.61 1604.64 475.46C1604.73 475.955 1604.98 476.412 1605.33 476.77C1605.33 476.83 1607.39 479.02 1618.67 480.43C1618.97 480.48 1625.31 481.59 1627.8 485.75C1628.35 486.708 1628.69 487.779 1628.78 488.882C1628.86 489.986 1628.71 491.096 1628.31 492.13C1628.09 494.412 1626.97 496.514 1625.21 497.98C1621.08 501.63 1613.75 502.83 1603.4 501.54C1603.3 501.54 1591.4 500.36 1583.97 502.54C1583.82 502.575 1583.68 502.621 1583.54 502.68C1582.87 502.883 1582.22 503.137 1581.59 503.44C1581.29 503.59 1581.02 503.74 1580.77 503.89C1580.41 504.11 1580.08 504.364 1579.77 504.65L1579.62 504.78C1579.23 505.146 1578.92 505.589 1578.71 506.082C1578.5 506.574 1578.39 507.105 1578.4 507.64C1578.4 507.77 1578.4 507.88 1578.4 508.01L1578.46 508.41C1578.52 508.809 1578.62 509.201 1578.76 509.58C1578.97 509.928 1579.2 510.262 1579.45 510.58L1579.57 510.8C1581.84 513.608 1584.75 515.827 1588.06 517.27C1588.16 517.321 1588.26 517.365 1588.36 517.4L1588.79 517.58C1589.28 517.79 1589.79 517.99 1590.32 518.16C1590.85 518.33 1593.55 519.63 1593.96 521.73C1594.04 522.225 1593.98 522.731 1593.81 523.2C1593.63 523.669 1593.34 524.085 1592.96 524.41L1592.86 524.52C1591.81 525.426 1590.62 526.137 1589.32 526.62L1589.02 526.73C1588.92 526.776 1588.82 526.816 1588.72 526.85L1588.56 526.91C1584.76 528.254 1580.68 528.628 1576.69 528C1575.46 527.83 1574.14 527.68 1572.86 527.59L1572.75 526.82V527.57H1572.49C1570.75 527.445 1569.01 527.445 1567.27 527.57H1567.07C1563.89 527.88 1561.68 528.76 1560.51 530.19L1560.23 530.52ZM1542.11 527.36C1545.76 527.61 1551.52 528.14 1559.25 528.94H1559.57C1561.05 527.37 1563.5 526.42 1566.87 526.09C1566.97 526.077 1567.06 526.077 1567.16 526.09C1568.99 525.954 1570.83 525.954 1572.66 526.09H1572.9C1574.28 526.19 1575.64 526.34 1576.9 526.52C1580.66 527.099 1584.5 526.728 1588.07 525.44L1588.47 525.29C1588.6 525.231 1588.74 525.181 1588.88 525.14C1589.98 524.725 1590.99 524.123 1591.88 523.36L1591.97 523.27C1592.62 522.55 1592.54 522.11 1592.51 521.95C1592.29 520.83 1590.44 519.79 1589.81 519.51C1589.18 519.23 1588.75 519.13 1588.24 518.91L1587.85 518.75C1587.7 518.699 1587.55 518.635 1587.41 518.56C1583.86 517.003 1580.75 514.6 1578.34 511.56L1578.25 511.42C1577.94 511.015 1577.66 510.588 1577.41 510.14C1577.23 509.671 1577.1 509.185 1577.02 508.69V508.63L1576.96 508.09C1576.96 507.92 1576.96 507.76 1576.96 507.6C1576.95 506.879 1577.09 506.164 1577.36 505.498C1577.64 504.832 1578.05 504.231 1578.57 503.73C1578.65 503.631 1578.74 503.544 1578.84 503.47C1579.21 503.128 1579.6 502.823 1580.03 502.56C1580.33 502.38 1580.64 502.2 1580.98 502.03C1581.66 501.7 1582.37 501.423 1583.1 501.2L1583.61 501.04C1591.28 498.78 1603.12 499.94 1603.61 500.04C1615.92 501.57 1621.61 499.17 1624.21 496.88C1624.96 496.287 1625.58 495.549 1626.03 494.71C1626.49 493.872 1626.77 492.95 1626.86 492V491.76C1627.2 490.918 1627.34 490.011 1627.28 489.106C1627.22 488.201 1626.96 487.321 1626.52 486.53C1624.39 482.97 1618.52 481.94 1618.46 481.93C1606.46 480.42 1604.37 477.99 1604.17 477.72C1603.64 477.154 1603.29 476.439 1603.17 475.67C1602.4 470.6 1614.05 467.25 1615.38 466.88C1633.71 464.05 1635.24 458.76 1635.3 458.54V458.36H1635.37C1636.5 456.16 1636.65 454.41 1635.82 453.14C1633.9 450.26 1627.13 450.14 1624.68 450.3C1593.01 450.3 1564.87 485.87 1560.97 491.01L1562.05 491.24H1562.33C1564.89 491.607 1567.48 491.634 1570.05 491.32H1570.54H1570.7C1570.93 491.32 1574.7 490.72 1577.05 491.99C1577.26 492.089 1577.45 492.217 1577.62 492.37L1577.88 492.61C1578.63 493.34 1579.24 494.61 1578.52 496.74C1578.15 497.775 1577.65 498.757 1577.03 499.66C1576.67 500.66 1574.03 506.47 1557.39 513.45L1556.64 513.72C1554.8 514.28 1545.51 517.56 1542.47 526.32C1542.32 526.62 1542.21 527 1542.11 527.36Z" fill="#242332"/>
<path d="M1547.17 528.76L1546.45 527.43C1546.72 527.28 1574.32 512.05 1581.67 494.43C1582.24 493.22 1595.5 465.61 1612.94 457.94L1613.55 459.32C1596.63 466.76 1583.18 494.76 1583.05 495.04C1575.5 513.12 1548.32 528.13 1547.17 528.76Z" fill="#242332"/>
<path d="M1400.82 533.25L1433.82 503.36C1434.12 501.69 1435.71 491.64 1430.7 487.12C1427.7 484.44 1422.9 484.12 1416.37 486.24L1415.55 486.51L1415.4 485.66C1415.4 485.55 1413.53 474.76 1424.4 471.9C1426.91 471.274 1429.54 471.234 1432.07 471.784C1434.6 472.334 1436.97 473.458 1439 475.07C1440.9 476.56 1442.73 478.146 1444.47 479.82C1444.47 479.82 1448.71 483.82 1453.02 483.52C1454.01 483.424 1454.97 483.118 1455.83 482.624C1456.69 482.129 1457.44 481.456 1458.02 480.65C1458.1 480.57 1460.32 478.18 1462.8 468.92C1464.11 463.746 1466.61 458.951 1470.11 454.92C1474.59 449.86 1482.03 444.4 1492.11 447.02C1493.11 447.02 1500.53 447.45 1505.16 453.35C1508.86 458.07 1509.69 464.94 1507.61 473.76C1505.09 481.98 1501.83 495.89 1503.78 498.42C1503.84 498.513 1503.92 498.587 1504.02 498.635C1504.12 498.682 1504.23 498.702 1504.34 498.69H1504.54L1504.72 498.78C1504.72 498.78 1506.49 499.41 1509.79 495.54C1510.93 494.166 1512.48 493.194 1514.22 492.767C1515.95 492.34 1517.78 492.482 1519.43 493.17L1519.61 493.26C1520.27 493.63 1520.85 494.127 1521.32 494.723C1521.79 495.318 1522.14 496 1522.34 496.73L1522.42 496.95C1523.42 500.12 1523.01 504.52 1521.17 510.04C1520.91 510.71 1520.45 512.55 1521.32 513.51C1521.96 514.21 1523.59 514.8 1527.79 513.6C1527.79 513.6 1531.88 511.6 1535.35 513.8C1538.54 515.8 1540.05 520.61 1539.85 528.03V528.82L1539.06 528.76C1539.06 528.76 1534.95 528.45 1527.87 528.22C1502.4 527.477 1476.9 528.406 1451.55 531L1400.82 533.25ZM1424 483.36C1426.82 483.225 1429.58 484.169 1431.73 486C1437.82 491.5 1435.38 503.4 1435.27 503.9L1435.22 504.14L1435.04 504.31L1404.91 531.56L1451.42 529.56C1476.81 526.942 1502.35 525.99 1527.87 526.71C1533.24 526.89 1536.87 527.1 1538.41 527.2C1538.47 520.9 1537.16 516.71 1534.6 515.08C1531.85 513.32 1528.42 514.98 1528.38 515C1524.28 516.18 1521.59 516 1520.25 514.51C1518.57 512.66 1519.75 509.65 1519.8 509.51C1521.95 503.07 1521.66 499.36 1521.04 497.39L1520.97 497.22C1520.83 496.674 1520.58 496.163 1520.24 495.716C1519.89 495.269 1519.46 494.897 1518.97 494.62L1518.84 494.55C1518.79 494.529 1518.74 494.502 1518.7 494.47C1517.36 493.946 1515.89 493.858 1514.5 494.217C1513.1 494.576 1511.86 495.364 1510.94 496.47C1507.33 500.7 1504.94 500.39 1504.24 500.16C1503.92 500.155 1503.6 500.074 1503.31 499.925C1503.02 499.776 1502.77 499.562 1502.58 499.3C1499.52 495.3 1505.47 475.57 1506.16 473.3C1508.11 465 1507.38 458.56 1503.98 454.22C1499.58 448.6 1492.07 448.45 1491.98 448.45H1491.79C1482.42 445.97 1475.43 451.11 1471.22 455.87C1467.87 459.728 1465.47 464.318 1464.22 469.27C1461.59 479.05 1459.22 481.52 1459.11 481.62C1458.4 482.582 1457.49 483.381 1456.45 483.962C1455.4 484.543 1454.24 484.894 1453.05 484.99C1448.05 485.31 1443.55 481.05 1443.36 480.87C1441.49 479.1 1439.69 477.53 1438 476.22C1436.16 474.757 1434.01 473.734 1431.71 473.232C1429.41 472.729 1427.03 472.759 1424.75 473.32C1416.75 475.41 1416.53 482.1 1416.75 484.5C1419.1 483.774 1421.54 483.39 1424 483.36Z" fill="#242332"/>
<path d="M1328.2 537.63C1328.2 537.63 1090.66 533.91 1078.59 573.13C1078.59 573.13 1080.76 603.54 1182.24 586.07C1182.24 586.07 1252.05 571.62 1267.13 588.21C1267.13 588.21 1280.7 598.77 1226.41 607.82C1226.41 607.82 1185.33 612.64 1168.61 626.29C1166.71 627.846 1165.24 629.866 1164.34 632.154C1163.45 634.443 1163.15 636.924 1163.5 639.358C1163.84 641.792 1164.8 644.097 1166.29 646.052C1167.78 648.007 1169.74 649.546 1172 650.52C1181.71 654.8 1201.27 659.28 1240 657.59C1240 657.59 1392.34 666.59 1499.43 656.08C1499.43 656.08 1540.15 653.08 1611.04 653.08C1611.04 653.08 1797.6 650.47 1822.49 612.49C1824.02 610.109 1824.64 607.258 1824.25 604.456C1823.85 601.654 1822.47 599.086 1820.34 597.22C1809.14 587.32 1773.27 569.5 1662.34 576.15C1662.34 576.15 1511.51 591.24 1529.61 571.63C1529.61 571.63 1535.61 564.09 1565.81 556.55C1565.81 556.55 1582.4 552.42 1588.64 545.88C1589.33 545.131 1589.82 544.226 1590.08 543.245C1590.35 542.263 1590.37 541.232 1590.14 540.241C1589.92 539.249 1589.46 538.325 1588.81 537.549C1588.15 536.772 1587.32 536.165 1586.38 535.78C1578.3 532.4 1549.22 524.87 1492.66 527.14L1328.2 537.63Z" fill="#242332"/>
<path d="M1127.41 597.93C1107.88 597.93 1099.2 595.07 1099.05 595.02C1087.43 593.34 1080.05 589.62 1077.42 584.02C1074.79 578.42 1077.81 573.02 1077.95 572.75L1079.24 573.52C1079.24 573.52 1076.42 578.45 1078.79 583.38C1081.25 588.51 1088.19 591.94 1099.4 593.57C1099.8 593.69 1126.25 602.35 1191.56 588.99C1194.27 588.5 1257.56 577.15 1268.04 593.92L1266.76 594.72C1256.85 578.81 1192.5 590.35 1191.85 590.47C1163.42 596.28 1142.28 597.93 1127.41 597.93Z" fill="#242332"/>
<path d="M1104.91 568.94L1103.56 568.27C1103.75 567.88 1108.47 558.84 1126.74 555.79L1126.98 557.28C1109.55 560.19 1105 568.85 1104.91 568.94Z" fill="white"/>
<path d="M1120.27 565.075L1113.23 572.613L1114.34 573.643L1121.37 566.105L1120.27 565.075Z" fill="white"/>
<path d="M1543.68 91.4414L1542.61 92.5091L1554.68 104.572L1555.75 103.505L1543.68 91.4414Z" fill="#242332"/>
<path d="M1542.91 104.811L1538.38 106.382L1538.88 107.808L1543.4 106.238L1542.91 104.811Z" fill="#242332"/>
<path d="M1567.28 114.2L1561.25 95L1589.9 126.67L1567.28 114.2Z" fill="#0071F2"/>
<g opacity="0.5">
<path d="M1544.65 123.66L1564.26 116.12L1585.19 126.36L1544.65 123.66Z" fill="#0071F2"/>
</g>
<path d="M1375.22 111.28C1365.1 97.41 1352.45 95.76 1352.32 95.75L1352.49 94.25C1353.04 94.31 1365.91 95.96 1376.44 110.39L1375.22 111.28Z" fill="#242332"/>
<path d="M1379.48 116.12C1379.56 112.085 1378.73 108.083 1377.06 104.41L1378.38 103.69C1378.48 103.88 1380.96 108.47 1380.98 116.11L1379.48 116.12Z" fill="#242332"/>
<path d="M1438.36 164.05C1436.02 164.003 1433.7 163.667 1431.44 163.05C1431.17 162.979 1430.94 162.814 1430.78 162.585C1430.62 162.356 1430.55 162.078 1430.59 161.803C1430.62 161.527 1430.74 161.271 1430.95 161.081C1431.15 160.892 1431.41 160.782 1431.69 160.77C1439.84 160.47 1449.14 154.72 1449.23 154.66L1450 156C1449.65 156.23 1441.83 161.06 1434 162.14C1436.61 162.69 1439.3 162.69 1441.91 162.14L1442.28 163.61C1441 163.912 1439.68 164.06 1438.36 164.05Z" fill="#242332"/>
<path d="M1180.16 157.4L1179.16 156.28C1179.66 155.83 1229.05 111.66 1273.96 134.49C1274.06 131.49 1274.57 123.99 1277.08 120.22L1278.34 121.06C1275.48 125.34 1275.45 135.62 1275.45 135.72V137L1274.34 136.41C1230.07 112.79 1180.65 157 1180.16 157.4Z" fill="#242332"/>
<path d="M1272.49 125.5C1272.42 125.36 1270.82 122.04 1274.05 117.21L1275.3 118.04C1272.59 122.1 1273.79 124.73 1273.84 124.83L1272.49 125.5Z" fill="#242332"/>
<path d="M1287.17 117.083L1279.62 124.628L1280.69 125.696L1288.24 118.151L1287.17 117.083Z" fill="#242332"/>
<path d="M1039.46 236L1039.3 234.5C1039.86 234.44 1096.3 228.5 1122.87 234.5L1122.53 235.97C1096.18 230.07 1040 236 1039.46 236Z" fill="#242332"/>
<path d="M1069.3 230.45C1062.37 230.45 1056.42 229.75 1055.03 227.51C1054.74 227.007 1054.62 226.427 1054.68 225.851C1054.73 225.275 1054.96 224.729 1055.34 224.29L1055.55 224.09C1055.72 223.98 1059.05 221.8 1065.63 221.09C1061.63 219.46 1056.05 216.32 1057.02 211.82C1057.24 210.937 1057.69 210.125 1058.31 209.461C1058.93 208.796 1059.71 208.3 1060.58 208.02C1063.98 206.78 1071.17 205.5 1082.23 210.02C1077.23 205.02 1068.94 195.36 1068.76 185.82C1068.71 183.685 1069.11 181.563 1069.93 179.592C1070.76 177.622 1071.99 175.846 1073.54 174.38C1073.87 174.12 1079.69 170.07 1088.95 171.89C1099.55 173.97 1109.95 182.66 1119.95 197.72C1119.81 193.02 1120.18 183.94 1124.74 180.15C1126.88 178.36 1129.67 177.96 1133.02 178.95C1135.47 179.725 1137.69 181.1 1139.48 182.95C1142.19 185.68 1146.01 190.65 1148.74 198.84L1147.31 199.32C1144.67 191.41 1141.01 186.63 1138.41 184.01C1136.8 182.354 1134.8 181.124 1132.59 180.43C1129.71 179.58 1127.46 179.88 1125.7 181.35C1120.17 185.95 1121.61 200.35 1121.63 200.51L1121.97 203.73L1120.19 201C1110.19 185.07 1099.27 175.53 1088.71 173.43C1080.09 171.71 1074.56 175.54 1074.51 175.57C1073.13 176.895 1072.04 178.492 1071.31 180.26C1070.58 182.028 1070.23 183.928 1070.27 185.84C1070.46 196.08 1080.68 206.64 1085.07 210.7C1085.25 210.87 1085.37 211.101 1085.4 211.35C1085.43 211.6 1085.37 211.852 1085.23 212.06C1085.09 212.268 1084.88 212.42 1084.64 212.49C1084.4 212.559 1084.14 212.542 1083.91 212.44C1072 207 1064.51 208.24 1061.09 209.48C1060.46 209.677 1059.9 210.029 1059.45 210.502C1058.99 210.976 1058.67 211.557 1058.5 212.19C1057.5 216.61 1066.29 220.02 1069.74 220.97L1075.17 222.45H1069.55C1061.67 222.45 1057.29 224.81 1056.55 225.27C1056 226.16 1056.25 226.56 1056.35 226.72C1058.63 230.38 1081.35 228.82 1095.13 226.98L1095.33 228.48C1086.7 229.632 1078.01 230.29 1069.3 230.45Z" fill="#242332"/>
<path d="M1052.51 232.14C1043.91 224.28 1035.06 225.45 1034.96 225.46L1034.74 224C1035.13 223.94 1044.38 222.69 1053.52 231.05L1052.51 232.14Z" fill="#242332"/>
<path d="M1052.42 227.41C1049.68 223.88 1043.85 222.72 1043.79 222.71L1044.08 221.23C1044.34 221.28 1050.51 222.5 1053.61 226.48L1052.42 227.41Z" fill="#242332"/>
<path d="M1301.56 420.37C1301.24 421.469 1300.62 422.457 1299.77 423.223C1298.92 423.99 1297.88 424.505 1296.75 424.71L1208.41 441.05C1207.05 441.301 1205.64 441.133 1204.38 440.569C1203.11 440.005 1202.04 439.071 1201.32 437.89L1094.82 264.65C1092.4 260.25 1092.11 257.25 1092.88 255.21C1094.6 250.61 1101.7 250.93 1101.7 250.93L1140.43 248.09L1141.05 248.68C1140.99 249.33 1140.93 249.96 1140.89 250.61C1140.58 254.02 1140.43 257.44 1140.43 260.91C1140.43 264.38 1140.58 267.73 1140.87 271.08C1140.99 272.59 1141.14 274.08 1141.32 275.56C1144.37 300.475 1155.12 323.818 1172.05 342.342C1188.99 360.866 1211.29 373.648 1235.83 378.91C1248.97 381.712 1262.49 382.303 1275.83 380.66C1276.98 380.52 1278.11 380.37 1279.24 380.19L1280.67 383.07L1300.84 415.28C1301.33 416.022 1301.65 416.864 1301.77 417.744C1301.9 418.624 1301.82 419.521 1301.56 420.37Z" fill="white"/>
<path d="M1207.19 441.91C1205.89 441.911 1204.6 441.579 1203.46 440.946C1202.33 440.312 1201.37 439.398 1200.68 438.29L1094.18 265.05C1091.88 260.88 1091.18 257.49 1092.18 254.94C1094.07 249.89 1101.42 250.15 1101.74 250.17L1140.74 247.32L1141.87 248.39V248.75C1141.8 249.48 1141.75 250.07 1141.71 250.66C1141.41 254.04 1141.26 257.49 1141.26 260.91C1141.26 264.33 1141.4 267.65 1141.69 271.01C1141.81 272.52 1141.96 274.01 1142.14 275.47C1145.13 300.234 1155.79 323.445 1172.62 341.858C1189.44 360.272 1211.6 372.967 1236 378.17L1236.6 378.31C1249.49 380.968 1262.72 381.512 1275.78 379.92C1276.92 379.79 1278.04 379.64 1279.16 379.46L1279.71 379.37L1281.39 382.75L1301.52 414.88C1302.12 415.844 1302.48 416.94 1302.56 418.072C1302.64 419.204 1302.44 420.34 1301.99 421.38C1301.53 422.42 1300.83 423.334 1299.95 424.043C1299.06 424.752 1298.01 425.235 1296.9 425.45L1208.56 441.79C1208.11 441.87 1207.65 441.91 1207.19 441.91ZM1101.51 251.68C1100.29 251.68 1094.93 251.87 1093.59 255.47C1092.79 257.59 1093.42 260.56 1095.48 264.29L1202 437.5C1202.65 438.547 1203.6 439.375 1204.72 439.875C1205.85 440.374 1207.1 440.522 1208.31 440.3L1296.62 424C1297.61 423.816 1298.53 423.362 1299.27 422.687C1300.02 422.013 1300.56 421.145 1300.84 420.18C1301.07 419.438 1301.14 418.653 1301.03 417.882C1300.93 417.111 1300.65 416.373 1300.23 415.72L1280.07 383.51L1278.84 381C1277.89 381.15 1276.92 381.27 1275.95 381.39C1262.52 383.022 1248.92 382.427 1235.68 379.63L1235.08 379.48C1210.49 374.126 1188.18 361.249 1171.25 342.637C1154.31 324.025 1143.59 300.602 1140.58 275.62C1140.39 274.13 1140.24 272.62 1140.12 271.11C1139.83 267.7 1139.68 264.26 1139.68 260.88C1139.68 257.5 1139.83 253.88 1140.14 250.51C1140.14 249.99 1140.22 249.51 1140.27 248.94L1140.16 248.84L1101.76 251.65L1101.51 251.68Z" fill="#242332"/>
<g opacity="0.5">
<path d="M1290.92 422.1L1216.33 436.25C1203.24 439.64 1202.27 434.37 1202.27 434.37L1101.7 267C1101.19 266.35 1100.7 265.72 1100.37 265.13C1099.73 264.037 1099.37 262.799 1099.34 261.531C1099.3 260.263 1099.59 259.007 1100.17 257.88C1100.75 256.753 1101.61 255.792 1102.67 255.087C1103.72 254.383 1104.94 253.957 1106.2 253.85L1140.87 250.65C1140.56 254.06 1140.41 257.48 1140.41 260.95C1140.41 264.42 1140.56 267.77 1140.85 271.12C1140.97 272.63 1141.12 274.12 1141.3 275.6C1144.35 300.515 1155.1 323.858 1172.03 342.382C1188.97 360.906 1211.27 373.688 1235.81 378.95C1248.95 381.752 1262.47 382.343 1275.81 380.7L1293.34 408C1301.46 420.76 1290.92 422.1 1290.92 422.1Z" fill="#0071F2"/>
</g>
<path d="M1143.45 399.67C1143.45 399.67 1114.79 381.58 1141.32 362.19L1158.16 350.92C1161.93 349.178 1166.01 348.193 1170.16 348.02C1171.83 347.975 1173.49 348.32 1175 349.028C1176.52 349.735 1177.84 350.786 1178.88 352.096C1179.92 353.407 1180.63 354.941 1180.97 356.577C1181.31 358.212 1181.27 359.905 1180.84 361.52C1179.74 365.58 1177.09 370.22 1171.3 374.37C1171.3 374.37 1184.3 369.51 1189.51 381.58C1189.51 381.58 1193.89 389.72 1178.51 400.73C1178.51 400.73 1196.51 394.51 1197.89 405.39C1197.89 405.39 1203.63 415 1187.89 424.68L1197.89 441.17C1197.89 441.17 1200.78 448.03 1209.89 446.48L1296 429.71C1297.12 429.514 1298.19 429.089 1299.15 428.461C1300.1 427.833 1300.91 427.016 1301.53 426.06C1302.92 423.81 1303.62 420.3 1300.87 415.29L1279.2 380.07C1279.2 380.07 1300.91 377.36 1313.43 369.67C1313.43 369.67 1336.51 404.2 1338.02 425.32C1338.02 425.32 1339.53 437.38 1353.1 450.96C1373.98 472.813 1397.85 491.6 1424 506.76C1424 506.76 1416.46 518.83 1387.8 523.35C1387.8 523.35 1350.1 526.35 1336.52 547.49C1336.52 547.49 1307.86 508.27 1256.58 487.16C1256.58 487.16 1170.58 458.5 1163.07 425.32C1158.03 422.859 1153.64 419.26 1150.24 414.808C1146.83 410.357 1144.51 405.174 1143.45 399.67Z" fill="#F9B499"/>
<path d="M1336.55 548.82L1335.9 547.93C1335.62 547.54 1306.77 508.64 1256.29 487.85C1252.82 486.7 1170.48 458.85 1162.41 425.85C1157.42 423.311 1153.06 419.681 1149.67 415.231C1146.27 410.781 1143.92 405.623 1142.78 400.14C1140.83 398.84 1129.68 390.97 1129.32 380.21C1129.09 373.62 1132.98 367.35 1140.88 361.58L1157.74 350.29C1161.63 348.469 1165.84 347.449 1170.13 347.29C1171.94 347.236 1173.73 347.61 1175.36 348.382C1177 349.153 1178.42 350.301 1179.53 351.73C1180.62 353.123 1181.37 354.754 1181.72 356.492C1182.07 358.229 1182 360.023 1181.53 361.73C1180.29 366.079 1177.79 369.962 1174.34 372.89C1178.75 372.25 1186.34 372.6 1190.16 381.28C1190.32 381.56 1194.06 388.92 1181.93 399C1185.71 398.17 1191.49 397.47 1195.17 399.76C1196.11 400.342 1196.9 401.131 1197.49 402.067C1198.07 403.003 1198.44 404.061 1198.55 405.16C1199.21 406.46 1203.21 415.77 1188.85 424.94L1198.47 440.78C1198.63 441.14 1201.31 447.17 1209.64 445.78L1295.84 429C1296.86 428.82 1297.82 428.434 1298.68 427.864C1299.54 427.295 1300.28 426.555 1300.84 425.69C1302.52 422.95 1302.3 419.58 1300.16 415.69L1277.9 379.5L1279.06 379.36C1279.28 379.36 1300.76 376.59 1313 369.06L1313.61 368.68L1314.02 369.29C1314.96 370.7 1337.23 404.23 1338.73 425.29C1338.73 425.37 1340.39 437.29 1353.6 450.45C1353.91 450.8 1382.69 482.35 1424.33 506.14L1425.01 506.53L1424.59 507.19C1424.28 507.7 1416.54 519.6 1387.87 524.13C1387.44 524.13 1350.32 527.37 1337.11 547.92L1336.55 548.82ZM1170.4 348.77H1170.16C1166.13 348.948 1162.17 349.902 1158.5 351.58L1141.74 362.8C1134.3 368.24 1130.62 374.08 1130.82 380.14C1131.18 390.89 1143.73 398.95 1143.82 399.03L1144.09 399.2L1144.15 399.51C1145.19 404.887 1147.47 409.95 1150.79 414.303C1154.11 418.657 1158.4 422.184 1163.31 424.61L1163.67 424.76L1163.75 425.14C1171.12 457.53 1255.92 486.14 1256.75 486.43C1303.5 505.68 1331.84 540.31 1336.41 546.18C1350.47 525.79 1386.14 522.72 1387.67 522.59C1411.77 518.79 1420.78 509.49 1422.82 506.98C1396.91 491.817 1373.24 473.128 1352.48 451.45C1338.91 437.88 1337.28 425.9 1337.21 425.45C1335.84 406.25 1316.21 375.45 1313.14 370.73C1302.14 377.22 1285.01 380.03 1280.39 380.73L1301.45 414.96C1304.45 420.49 1303.45 424.3 1302.1 426.52C1301.43 427.564 1300.55 428.459 1299.52 429.147C1298.49 429.836 1297.32 430.303 1296.1 430.52L1210 447.22C1200.44 448.85 1197.24 441.53 1197.21 441.46L1186.87 424.46L1187.51 424.07C1202.37 414.93 1197.51 406.17 1197.25 405.8L1197.15 405.51C1197.08 404.609 1196.81 403.736 1196.34 402.963C1195.87 402.19 1195.23 401.538 1194.46 401.06C1189.33 397.88 1178.87 401.43 1178.77 401.47L1173.85 403.17L1178.08 400.17C1192.68 389.74 1188.92 382.06 1188.88 381.99C1183.98 370.68 1172.1 374.99 1171.6 375.14L1166.31 377.14L1170.9 373.85C1175.74 370.38 1178.9 366.2 1180.16 361.41C1180.56 359.926 1180.62 358.367 1180.31 356.859C1180 355.352 1179.34 353.937 1178.39 352.73C1177.46 351.497 1176.25 350.497 1174.86 349.81C1173.47 349.123 1171.95 348.767 1170.4 348.77Z" fill="#242332"/>
<path d="M1144.2 399.73L1142.7 399.62C1142.76 398.88 1144.43 381.62 1171.07 373.62L1171.51 375.07C1145.91 382.72 1144.22 399.57 1144.2 399.73Z" fill="#242332"/>
<path d="M1162.32 425.48C1162.32 425.3 1158.54 407.25 1178.21 400.02L1178.73 401.44C1160.32 408.2 1163.65 424.44 1163.8 425.15L1162.32 425.48Z" fill="#242332"/>
<path d="M1176.77 430.6H1176.6L1176.66 429.1C1180.72 428.893 1184.54 427.123 1187.32 424.16L1188.38 425.22C1185.35 428.449 1181.19 430.378 1176.77 430.6Z" fill="#242332"/>
<path d="M1365.59 333.94L1364.75 332.68C1370.75 328.68 1385.99 317.15 1385.04 311.73C1384.83 310.51 1383.66 309.64 1381.58 309.12C1381.32 309.036 1381.08 308.894 1380.88 308.703C1380.68 308.512 1380.53 308.279 1380.44 308.02C1379.75 306.25 1380.98 303.02 1384.09 298.29C1384.47 297.02 1388.33 283.71 1388.44 264.64H1389.94C1389.83 284.85 1385.54 298.7 1385.5 298.84L1385.41 299.03C1381.66 304.65 1381.64 306.72 1381.81 307.35C1381.88 307.6 1381.99 307.66 1382 307.66C1384.66 308.32 1386.2 309.6 1386.52 311.46C1387.81 318.83 1367.87 332.41 1365.59 333.94Z" fill="#242332"/>
<path d="M1376.91 332.624L1364.9 336.993L1365.42 338.412L1377.43 334.043L1376.91 332.624Z" fill="#242332"/>
<path d="M1371.17 343.88H1359.9V345.39H1371.17V343.88Z" fill="#242332"/>
<path d="M1530.85 578.5C1530.59 577.97 1530.45 577.386 1530.45 576.795C1530.45 576.204 1530.59 575.62 1530.85 575.09C1534.57 567.09 1564.28 559.16 1565.54 558.82C1588.19 551.27 1591.83 545.69 1591.98 543.03C1592.13 540.37 1588.76 538.69 1588.73 538.67L1589.36 537.3C1589.53 537.38 1593.69 539.3 1593.49 543.11C1593.2 548.51 1583.94 554.28 1565.97 560.27C1565.62 560.36 1535.64 568.34 1532.22 575.73C1532.06 576.059 1531.97 576.422 1531.97 576.79C1531.97 577.158 1532.06 577.521 1532.22 577.85L1530.85 578.5Z" fill="#242332"/>
<path d="M1346.54 675.42C1248.82 675.42 1186.27 665.99 1185.54 665.88C1173.11 663.72 1165.19 659.23 1161.98 652.55C1158.18 644.63 1162.48 636.67 1162.67 636.34L1163.99 637.07C1163.99 637.14 1159.88 644.7 1163.35 651.91C1166.35 658.12 1173.88 662.32 1185.78 664.39C1186.55 664.51 1265.52 676.39 1384.78 673.39L1488.84 668.87C1489.84 668.87 1588.76 664.34 1620.09 664.34C1621.91 664.22 1807.36 651.74 1824.33 619.4C1826.11 616.01 1825.92 612.6 1823.76 608.98L1825.05 608.2C1827.48 612.26 1827.68 616.26 1825.67 620.1C1808.3 653.18 1627.81 665.34 1620.14 665.85C1588.8 665.85 1489.9 670.33 1488.9 670.37L1384.83 674.9C1371.54 675.27 1358.76 675.42 1346.54 675.42Z" fill="#242332"/>
<path d="M1310.55 566.34H1285.83V564.83H1304.46C1303.34 563.97 1302.31 562.83 1302.55 561.49C1302.79 560.15 1304.43 558.07 1315.34 557.29L1315.45 558.8C1305.23 559.53 1304.13 561.25 1304.04 561.8C1303.87 562.72 1305.93 564.22 1307.48 564.94L1310.55 566.34Z" fill="white"/>
<path d="M1286.58 573.13H1285.07V568.6H1293.35V570.11H1286.58V573.13Z" fill="white"/>
<path d="M1295.8 570.843L1288.97 580.182L1290.19 581.073L1297.02 571.734L1295.8 570.843Z" fill="white"/>
<path d="M1383.86 621.85C1367.75 621.85 1354.42 620.75 1353.04 620.64L1353.17 619.13C1354.04 619.21 1440.17 626.29 1443.43 604.52C1443.63 602.84 1443.32 601.137 1442.52 599.642C1441.73 598.147 1440.5 596.932 1438.99 596.16C1431.99 592.34 1423.73 586.85 1424.51 582.4C1424.95 579.91 1427.93 578.29 1433.62 577.4C1434.28 577.33 1496.68 570.73 1503.2 558.84C1503.51 558.312 1503.68 557.712 1503.69 557.098C1503.7 556.484 1503.56 555.878 1503.26 555.34L1503.13 555.09L1503.2 554.82C1503.1 554.499 1502.91 554.213 1502.65 554C1499.83 551.3 1485.5 545.76 1413.51 552.73L1413.36 551.23C1484.77 544.32 1500.79 549.52 1503.99 553.23C1504.41 553.674 1504.66 554.251 1504.7 554.86C1505.06 555.601 1505.23 556.419 1505.2 557.243C1505.17 558.066 1504.94 558.869 1504.52 559.58C1497.62 572.15 1436.41 578.64 1433.81 578.91C1429.01 579.63 1426.3 580.91 1426 582.64C1425.52 585.34 1430.65 589.89 1439.71 594.82C1441.49 595.738 1442.94 597.18 1443.87 598.951C1444.8 600.721 1445.17 602.735 1444.92 604.72C1442.77 619 1409.73 621.85 1383.86 621.85Z" fill="white"/>
<path d="M1363.46 631.17C1346.94 626.66 1339.76 621.89 1339.46 621.69L1340.31 620.44C1340.38 620.44 1347.62 625.28 1363.86 629.72L1363.46 631.17Z" fill="white"/>
<path d="M1353.05 634.52C1349.56 634.573 1346.18 633.305 1343.59 630.97L1344.67 629.91C1346.19 631.252 1348.01 632.208 1349.98 632.697C1351.94 633.187 1354 633.194 1355.97 632.72L1356.27 634.2C1355.21 634.414 1354.13 634.521 1353.05 634.52Z" fill="white"/>
<path d="M1636.36 626.51L1636.31 625C1637.4 625 1745.83 621.2 1765.73 606C1766.3 605.569 1766.76 605.012 1767.08 604.371C1767.4 603.731 1767.56 603.025 1767.56 602.31C1767.55 601.61 1767.38 600.922 1767.05 600.302C1766.73 599.682 1766.26 599.147 1765.69 598.74C1761.27 595.5 1749 590 1716.58 589V587.5C1747.78 588.44 1760.97 593.5 1766.58 597.5C1767.34 598.046 1767.96 598.762 1768.39 599.59C1768.82 600.418 1769.06 601.336 1769.07 602.27C1769.08 603.221 1768.86 604.161 1768.44 605.014C1768.02 605.867 1767.4 606.609 1766.64 607.18C1746.37 622.69 1640.84 626.36 1636.36 626.51Z" fill="white"/>
<path d="M1763.55 619.11L1763.16 617.65C1763.28 617.65 1774.74 614.46 1777.66 606.72L1779.07 607.25C1775.88 615.73 1764.05 619 1763.55 619.11Z" fill="white"/>
<path d="M1347.07 600.28C1347.07 600.28 1384.38 613.78 1395.57 589.01C1396.86 585.996 1397.54 582.755 1397.57 579.476C1397.59 576.197 1396.97 572.946 1395.73 569.91C1392.02 560.31 1388.21 541.37 1408.91 529.39C1408.91 529.39 1465.23 509.61 1428.77 484.81C1428.77 484.81 1437.56 505.65 1408.9 517.52C1408.9 517.52 1402.9 520.34 1387.79 523.35C1387.79 523.35 1350.09 524.86 1336.51 547.49C1336.51 547.49 1336.33 549 1331.9 558.04C1331.9 558.04 1325.78 570.11 1319.08 565.59C1319.08 565.59 1312.38 586.7 1347.07 600.28Z" fill="#0071F2"/>
<path d="M1318.42 566C1318.17 565.55 1312.42 554.88 1331.57 541.35L1332.44 542.58C1314.37 555.33 1319.68 565.15 1319.73 565.25L1318.42 566Z" fill="white"/>
<path d="M1406.2 495.69L1424 506.76C1424 506.76 1430.85 502.68 1429.69 488.13C1429.68 488.13 1412.55 483.11 1406.2 495.69Z" fill="#242332"/>
<path d="M1404.22 494.32L1403 493.5C1403.08 493.38 1410.81 481.69 1428.92 484.06L1428.73 485.55C1411.49 483.3 1404.29 494.2 1404.22 494.32Z" fill="#242332"/>
<path d="M1368.13 606.51C1357.25 606.51 1337.56 603.69 1323.05 585.65C1322.79 585.37 1315.94 577.74 1318.34 565.44L1318.59 564.14L1319.59 565.02C1320.12 565.427 1320.75 565.701 1321.41 565.819C1322.07 565.937 1322.75 565.896 1323.39 565.7C1326.39 564.92 1330.92 561.08 1335.81 547.24C1336.21 546.35 1345.55 527.12 1387.72 522.6C1387.99 522.6 1415.83 518.97 1425.72 504.01C1429.33 498.54 1430.12 492.15 1428.07 485.01L1427.74 483.86L1428.92 484.05C1429.27 484.11 1437.79 485.55 1442.21 491.98C1444.63 495.5 1445.34 499.82 1444.3 504.81C1442.99 510.717 1439.71 516.005 1435.01 519.81C1429.16 524.65 1421.12 529.23 1411.1 533.42C1410.36 533.71 1393.35 540.59 1397.57 556.28C1398.38 557.9 1410.88 583.93 1390.39 599.44C1384.15 604.065 1376.57 606.545 1368.8 606.51H1368.13ZM1319.63 566.81C1319.11 569.941 1319.24 573.147 1320.03 576.222C1320.82 579.298 1322.24 582.175 1324.2 584.67C1338.63 602.61 1358.2 605.1 1368.77 605C1376.22 605.03 1383.47 602.656 1389.46 598.23C1409.46 583.07 1396.31 557.14 1396.18 556.89L1396.12 556.74C1391.47 539.74 1410.33 532.08 1410.52 532.01C1422.8 526.87 1430.09 521.9 1434.03 518.63C1438.47 515.052 1441.56 510.074 1442.8 504.51C1443.75 499.94 1443.13 496.02 1440.95 492.85C1437.83 488.3 1432.24 486.43 1429.82 485.85C1431.58 492.95 1430.62 499.35 1426.96 504.85C1416.69 520.38 1389.06 523.96 1387.89 524.1C1346.55 528.53 1337.29 547.61 1337.2 547.8C1333.11 559.4 1328.56 565.94 1323.72 567.17C1322.36 567.544 1320.91 567.417 1319.63 566.81Z" fill="#242332"/>
<path d="M1501.85 519.56L1501.49 518.1L1501.67 518.83L1501.47 518.1C1501.47 518.1 1502.88 517.64 1503.72 514.64L1505.17 515.05C1504.09 518.92 1502.07 519.51 1501.85 519.56Z" fill="#242332"/>
<path d="M1775.38 626.4L1774.61 625.1C1777.78 623.133 1780.63 620.703 1783.08 617.89L1784.24 618.89C1781.68 621.822 1778.69 624.354 1775.38 626.4Z" fill="white"/>
<path d="M1785.6 126.58H1785.3L1764 124.92L1764.12 123.41L1785.43 125.06C1785.83 125.104 1786.24 125.025 1786.6 124.832C1786.96 124.639 1787.25 124.342 1787.43 123.98C1787.5 123.854 1787.54 123.713 1787.54 123.57C1787.54 123.427 1787.5 123.286 1787.43 123.16C1786.53 121.61 1781.85 120.46 1779.11 120.1L1775.59 119.63L1779 118.63C1786.88 116.31 1787.53 114.63 1787.58 114.36C1787.59 114.306 1787.58 114.252 1787.56 114.202C1787.54 114.151 1787.51 114.106 1787.47 114.07L1787.17 113.87V113.5C1787.17 113.194 1787.09 112.893 1786.94 112.625C1786.79 112.358 1786.58 112.132 1786.32 111.97C1783.32 109.97 1774.11 112.72 1770.8 113.97L1767.26 115.25L1770.03 112.7C1775.6 107.57 1778.46 102.55 1778.5 97.81C1778.56 95.0477 1777.55 92.3686 1775.7 90.32C1774.57 89.3965 1773.24 88.7378 1771.82 88.3918C1770.4 88.0457 1768.92 88.0212 1767.49 88.32C1757.33 90.32 1748.01 106.6 1747.92 106.76L1746.09 109.99L1746.52 106.31C1747.62 96.7 1745.63 94.96 1745.62 94.94C1744.69 94.3577 1743.64 93.9932 1742.55 93.8737C1741.46 93.7542 1740.36 93.8828 1739.33 94.25C1733.39 96.42 1729.78 106.08 1729.75 106.17L1728.33 105.65C1728.49 105.23 1732.21 95.25 1738.81 92.83C1740.06 92.3869 1741.4 92.2323 1742.72 92.3777C1744.04 92.5232 1745.31 92.9649 1746.43 93.67C1746.87 93.95 1748.73 95.56 1748.29 103.3C1751.51 98.4 1758.92 88.5 1767.19 86.85C1768.85 86.5053 1770.56 86.5385 1772.2 86.9471C1773.85 87.3556 1775.38 88.1291 1776.68 89.21C1778.86 91.5107 1780.05 94.5722 1780 97.74C1780 102.2 1777.73 106.82 1773.33 111.5C1777.33 110.3 1784.16 108.74 1787.14 110.7C1787.55 110.963 1787.9 111.314 1788.16 111.727C1788.42 112.14 1788.58 112.606 1788.64 113.09C1788.82 113.295 1788.95 113.536 1789.03 113.796C1789.1 114.057 1789.12 114.331 1789.08 114.6C1788.82 116.14 1786.6 117.6 1782.3 119.15C1784.69 119.71 1787.78 120.74 1788.74 122.4C1788.93 122.722 1789.04 123.084 1789.07 123.458C1789.09 123.832 1789.03 124.206 1788.88 124.55C1788.59 125.174 1788.13 125.7 1787.55 126.061C1786.96 126.422 1786.29 126.603 1785.6 126.58Z" fill="#242332"/>
<path d="M1746.08 132.7L1745.94 131.2C1746.28 131.2 1780.04 128.2 1799.22 131.2L1799 132.7C1780 129.73 1746.42 132.67 1746.08 132.7Z" fill="#242332"/>
<path d="M1791.77 128.68L1791.62 126.68C1791.52 125.918 1791.59 125.145 1791.81 124.41C1792.03 123.675 1792.4 122.994 1792.9 122.41C1794.1 121.218 1795.7 120.507 1797.39 120.41L1797.44 121.92C1796.16 121.991 1794.94 122.52 1794.01 123.41C1793.65 123.814 1793.39 124.302 1793.26 124.83C1795.26 123.49 1799.26 121.83 1806.53 123.15L1806.25 124.63C1796.41 122.79 1793 127.02 1792.97 127.06L1791.77 128.68Z" fill="#242332"/>
<path d="M1591.72 127.55L1541.19 124.18L1563.43 115.63L1560.15 92.63L1591.72 127.55ZM1548.12 123.13L1588.12 125.8L1562.34 97.33L1565.1 116.6L1548.12 123.13Z" fill="#242332"/>
<path d="M1208.79 438.444C1206.92 438.539 1205.06 438.102 1203.43 437.183C1202.56 436.688 1201.91 435.894 1201.6 434.951L1101.05 267.496C1100.64 266.975 1100.19 266.345 1099.74 265.644C1099.02 264.478 1098.61 263.146 1098.55 261.775C1098.49 260.405 1098.78 259.042 1099.4 257.817C1100.03 256.535 1100.98 255.436 1102.16 254.626C1103.34 253.816 1104.71 253.323 1106.13 253.193L1141.71 249.911L1141.65 250.811C1141.35 254.184 1141.2 257.627 1141.2 261.05C1141.2 264.473 1141.34 267.786 1141.63 271.159C1141.75 272.67 1141.9 274.162 1142.08 275.623C1145.08 300.418 1155.75 323.656 1172.59 342.086C1189.44 360.517 1211.62 373.217 1236.03 378.412L1236.63 378.552C1249.52 381.212 1262.76 381.756 1275.82 380.164L1276.29 380.103L1294.05 407.817C1297.05 412.622 1297.96 416.495 1296.64 419.317C1295.15 422.48 1291.48 423.081 1291.11 423.131L1216.5 437.293C1213.99 437.993 1211.4 438.38 1208.79 438.444ZM1140.07 251.572L1106.26 254.695C1105.09 254.802 1103.97 255.208 1103.01 255.874C1102.04 256.541 1101.27 257.444 1100.75 258.498C1100.24 259.486 1100 260.59 1100.04 261.702C1100.09 262.813 1100.43 263.892 1101.02 264.833C1101.41 265.456 1101.84 266.057 1102.29 266.635L1203.03 434.381V434.521C1203.25 435.148 1203.7 435.665 1204.3 435.962C1205.84 436.893 1209.14 437.633 1216.15 435.812L1290.85 421.629C1290.85 421.629 1294.06 421.179 1295.24 418.627C1296.31 416.335 1295.44 412.862 1292.74 408.618L1275.5 381.715C1262.22 383.278 1248.78 382.663 1235.69 379.893L1235.09 379.743C1210.5 374.384 1188.18 361.495 1171.24 342.868C1154.3 324.24 1143.58 300.797 1140.56 275.793C1140.38 274.302 1140.23 272.79 1140.11 271.279C1139.82 267.866 1139.67 264.423 1139.67 261.04C1139.69 257.887 1139.82 254.705 1140.07 251.572Z" fill="#242332"/>
<path d="M140.5 751.5C146.667 734.5 183.222 674 226 674C268 674 370.333 717.333 387.5 726M1702.5 845.5C1681.5 835 1663.88 820.157 1699.5 806C1738.5 790.5 1724.17 766.833 1716 757.5M1050 862.5C1117.17 867.167 1269.4 844.7 1333 823.5" stroke="white" stroke-width="2"/>
</svg>
