<svg width="374" height="341" viewBox="0 0 374 341" fill="none" xmlns="http://www.w3.org/2000/svg">
<path d="M253.303 299.834C253.303 299.834 257.593 308.541 267.393 307.202C267.393 307.202 274.933 306.262 279.083 297.765C279.083 297.765 279.463 321.007 279.083 329.264C269.198 331.549 258.853 330.797 249.403 327.105C249.403 327.105 251.993 317.888 253.303 299.834Z" fill="#2F2E41"/>
<path d="M267.233 331.293C263.996 331.288 260.765 331.013 257.573 330.474C257.363 330.474 235.964 326.785 226.054 307.392L225.914 307.112L226.004 306.822C226.064 306.622 232.654 286.979 258.123 288.528L281.993 290.068C282.713 290.318 299.662 296.326 307.632 308.461L307.882 308.841L307.662 309.241C303.366 316.061 297.395 321.667 290.319 325.527C283.242 329.388 275.294 331.372 267.233 331.293V331.293ZM227.544 306.992C237.164 325.445 257.613 328.984 257.813 328.984C289.352 334.212 304.122 312.13 306.092 308.901C298.592 297.905 282.933 292.027 281.573 291.527L257.993 290.028C235.204 288.678 228.444 304.543 227.544 306.992Z" fill="#2F2E41"/>
<path d="M226.724 307.052C230.19 301.931 234.928 297.797 240.472 295.056C246.017 292.316 252.179 291.062 258.354 291.417C258.354 291.417 258.054 295.306 253.304 299.834C253.304 299.834 251.764 321.207 249.404 327.105C239.878 323.041 231.922 316.007 226.724 307.052V307.052Z" fill="#0071F2"/>
<path d="M305.853 310.391C296.803 325.465 279.083 329.264 279.083 329.264V297.765C279.083 297.765 280.213 296.815 280.083 290.688C280.083 290.688 290.083 296.605 297.393 302.134C299.017 303.371 300.536 304.742 301.933 306.232L305.853 310.391Z" fill="#0071F2"/>
<path d="M69.4785 252.321C76.6276 253.341 83.9052 253.002 90.9284 251.321L99.1884 203.948L90.1385 193.952C90.1385 193.952 73.3385 203.768 65.9185 188.444L61.5184 204.788L69.4785 252.321Z" fill="white"/>
<path d="M99.1975 156.235V163.512L96.1976 163.892V158.194C96.199 157.982 96.1539 157.771 96.0654 157.577C95.9768 157.384 95.847 157.212 95.6851 157.074C95.5231 156.936 95.3329 156.835 95.1278 156.778C94.9227 156.721 94.7076 156.71 94.4976 156.745C91.7777 157.165 86.6178 157.655 85.5778 155.295C83.7327 154.842 81.8028 154.861 79.9672 155.352C78.1316 155.843 76.4499 156.79 75.0781 158.104C75.0781 158.104 69.0783 161.103 59.9985 159.614C59.9985 159.614 59.9985 162.553 60.2685 166.681H59.9985C59.9985 166.681 44.5689 151.497 59.8385 146.498C59.8385 146.498 67.5383 133.963 82.6279 135.502C82.6379 135.482 97.6575 136.272 99.1975 156.235Z" fill="#2F2E41"/>
<path d="M61.4375 176.053C63.8609 175.455 65.1779 172.35 64.379 169.118C63.5801 165.886 60.968 163.751 58.5445 164.35C56.1211 164.948 54.8041 168.054 55.603 171.286C56.4019 174.517 59.0141 176.652 61.4375 176.053Z" fill="#F9B499"/>
<path d="M60.6185 176.878C59.4518 176.853 58.3304 176.422 57.4485 175.658C56.1852 174.543 55.2921 173.069 54.8883 171.433C54.4845 169.797 54.5893 168.076 55.1885 166.501C55.4483 165.796 55.8735 165.162 56.4285 164.654C56.9836 164.146 57.6522 163.779 58.3785 163.582C61.2085 162.873 64.2385 165.262 65.1385 168.901C65.5673 170.533 65.4621 172.26 64.8385 173.829C64.5734 174.533 64.1453 175.165 63.5891 175.672C63.0329 176.18 62.3645 176.548 61.6385 176.748C61.3055 176.835 60.9627 176.878 60.6185 176.878ZM59.3985 164.942C59.1795 164.943 58.9613 164.97 58.7485 165.022C58.2557 165.163 57.8027 165.417 57.4259 165.764C57.049 166.111 56.7588 166.542 56.5785 167.021C56.0679 168.293 55.9871 169.698 56.3485 171.02C56.6509 172.351 57.3731 173.549 58.4085 174.439C58.7748 174.807 59.2305 175.074 59.731 175.213C60.2315 175.353 60.7596 175.36 61.2636 175.234C61.7676 175.108 62.2302 174.853 62.6062 174.495C62.9822 174.136 63.2587 173.686 63.4085 173.189C63.9108 171.915 63.988 170.512 63.6285 169.19C63.0485 166.741 61.2185 164.942 59.3985 164.942Z" fill="#2F2E41"/>
<path d="M94.3977 172.409C94.2345 172.419 94.0709 172.419 93.9077 172.409C93.1637 172.301 92.4559 172.018 91.8423 171.584C91.2287 171.149 90.7268 170.576 90.3777 169.91C89.5554 168.436 89.2327 166.735 89.4577 165.062C89.6244 163.381 90.3253 161.797 91.4577 160.544C91.9412 159.962 92.5623 159.511 93.2646 159.231C93.9669 158.95 94.7281 158.85 95.4791 158.938C96.2302 159.027 96.9472 159.301 97.5651 159.737C98.1831 160.173 98.6824 160.756 99.0177 161.433C99.8353 162.909 100.158 164.609 99.9377 166.281V166.281C99.5277 169.76 97.0977 172.409 94.3977 172.409ZM94.9977 160.414C94.5343 160.433 94.0796 160.546 93.6617 160.747C93.2438 160.948 92.8715 161.233 92.5677 161.583C91.6777 162.61 91.1169 163.881 90.9582 165.23C90.7995 166.579 91.0502 167.945 91.6777 169.15C91.9103 169.614 92.2503 170.016 92.6695 170.322C93.0887 170.628 93.5749 170.83 94.0877 170.91C96.1877 171.17 98.0877 169.001 98.4477 166.112C98.6331 164.758 98.377 163.38 97.7177 162.183C97.4842 161.723 97.145 161.324 96.7279 161.02C96.3107 160.716 95.8275 160.515 95.3177 160.434C95.2129 160.407 95.1057 160.39 94.9977 160.384V160.414Z" fill="#2F2E41"/>
<path d="M266.913 230.479C256.396 230.477 246.115 233.593 237.37 239.432C228.625 245.272 221.809 253.573 217.784 263.285C213.758 272.998 212.704 283.686 214.756 293.997C216.807 304.308 221.871 313.78 229.307 321.214C236.743 328.648 246.218 333.71 256.533 335.76C266.847 337.811 277.539 336.758 287.254 332.733C296.97 328.709 305.274 321.895 311.115 313.153C316.957 304.411 320.074 294.133 320.072 283.62C320.072 269.526 314.471 256.009 304.502 246.044C294.533 236.078 281.012 230.479 266.913 230.479ZM267.393 331.983C257.9 331.983 248.62 329.169 240.726 323.896C232.833 318.624 226.681 311.13 223.048 302.362C219.415 293.594 218.465 283.947 220.317 274.639C222.169 265.331 226.74 256.781 233.453 250.071C240.165 243.36 248.718 238.79 258.029 236.939C267.34 235.087 276.991 236.038 285.761 239.669C294.532 243.301 302.028 249.451 307.302 257.342C312.577 265.233 315.392 274.51 315.392 284C315.392 296.726 310.335 308.931 301.333 317.929C292.332 326.928 280.123 331.983 267.393 331.983V331.983Z" fill="#0071F2"/>
<path d="M266.853 3.82884C255.057 3.82686 243.526 7.32177 233.717 13.8716C223.908 20.4214 216.263 29.7319 211.747 40.6257C207.232 51.5194 206.049 63.5071 208.349 75.0728C210.649 86.6384 216.329 97.2624 224.669 105.601C233.009 113.94 243.635 119.619 255.204 121.92C266.773 124.222 278.765 123.042 289.663 118.529C300.562 114.017 309.876 106.376 316.43 96.5714C322.984 86.7669 326.481 75.2397 326.481 63.4478C326.481 47.6376 320.2 32.4748 309.017 21.2944C297.835 10.1139 282.668 3.83149 266.853 3.82884V3.82884ZM267.393 117.679C256.747 117.679 246.34 114.523 237.487 108.61C228.635 102.697 221.736 94.2929 217.662 84.4602C213.588 74.6276 212.522 63.808 214.599 53.3696C216.676 42.9313 221.802 33.3431 229.33 25.8175C236.859 18.2919 246.45 13.1669 256.892 11.0906C267.333 9.0143 278.157 10.0799 287.992 14.1528C297.828 18.2256 306.235 25.1227 312.15 33.9719C318.065 42.821 321.222 53.2248 321.222 63.8676C321.222 78.1392 315.55 91.8262 305.456 101.918C295.361 112.009 281.669 117.679 267.393 117.679V117.679Z" fill="#0071F2"/>
<path d="M76.6982 115.959C62.3447 115.957 48.313 120.211 36.3777 128.181C24.4424 136.152 15.1396 147.481 9.64586 160.737C4.15211 173.994 2.71418 188.581 5.51392 202.654C8.31365 216.727 15.2253 229.654 25.3748 239.8C35.5242 249.946 48.4555 256.856 62.5333 259.655C76.611 262.453 91.2029 261.016 104.463 255.524C117.724 250.032 129.057 240.732 137.03 228.801C145.004 216.87 149.258 202.842 149.256 188.494C149.254 169.257 141.608 150.809 128.002 137.207C114.395 123.605 95.9409 115.962 76.6982 115.959V115.959ZM77.3581 254.5C64.4018 254.5 51.7365 250.66 40.9637 243.464C30.1909 236.268 21.7945 226.04 16.8363 214.074C11.8782 202.108 10.5809 188.941 13.1086 176.238C15.6362 163.534 21.8753 151.866 31.0368 142.707C40.1983 133.549 51.8707 127.312 64.5781 124.785C77.2854 122.258 90.457 123.555 102.427 128.511C114.397 133.468 124.628 141.862 131.826 152.631C139.024 163.4 142.866 176.061 142.866 189.013C142.866 206.382 135.965 223.038 123.679 235.32C111.394 247.601 94.732 254.5 77.3581 254.5V254.5Z" fill="#0071F2"/>
<path d="M267.393 340.54C256.209 340.532 245.277 337.209 235.982 330.992C226.686 324.774 219.443 315.941 215.168 305.609C210.894 295.277 209.779 283.91 211.966 272.945C214.153 261.98 219.543 251.909 227.454 244.006C235.366 236.103 245.444 230.722 256.414 228.543C267.384 226.365 278.754 227.487 289.086 231.768C299.419 236.048 308.25 243.295 314.463 252.592C320.675 261.889 323.992 272.819 323.992 284C323.976 298.997 318.006 313.375 307.394 323.976C296.782 334.577 282.395 340.535 267.393 340.54V340.54ZM267.393 228.969C256.505 228.969 245.862 232.197 236.81 238.244C227.757 244.291 220.701 252.885 216.535 262.941C212.368 272.996 211.278 284.061 213.402 294.736C215.526 305.411 220.769 315.216 228.468 322.912C236.167 330.609 245.975 335.85 256.654 337.973C267.332 340.096 278.4 339.007 288.459 334.842C298.518 330.676 307.115 323.623 313.164 314.573C319.213 305.524 322.442 294.884 322.442 284C322.426 269.41 316.621 255.422 306.301 245.105C295.981 234.788 281.988 228.985 267.393 228.969V228.969ZM267.393 331.493C257.997 331.493 248.811 328.708 240.999 323.489C233.186 318.27 227.096 310.853 223.501 302.175C219.905 293.497 218.964 283.947 220.797 274.734C222.63 265.522 227.155 257.059 233.799 250.417C240.444 243.775 248.909 239.252 258.125 237.419C267.34 235.587 276.893 236.527 285.574 240.122C294.255 243.717 301.675 249.804 306.895 257.614C312.115 265.424 314.902 274.607 314.902 284C314.889 296.592 309.879 308.664 300.972 317.568C292.065 326.472 279.989 331.48 267.393 331.493V331.493ZM267.393 238.016C258.295 238.016 249.402 240.713 241.837 245.766C234.273 250.819 228.377 258 224.896 266.403C221.414 274.805 220.503 284.051 222.278 292.971C224.053 301.891 228.434 310.084 234.867 316.515C241.3 322.946 249.496 327.326 258.419 329.1C267.342 330.874 276.591 329.964 284.996 326.483C293.401 323.003 300.585 317.109 305.64 309.547C310.694 301.985 313.392 293.095 313.392 284C313.379 271.808 308.528 260.12 299.904 251.499C291.281 242.878 279.589 238.029 267.393 238.016V238.016Z" fill="#2F2E41"/>
<path d="M77.3579 265.906C62.145 265.906 47.2737 261.397 34.6246 252.948C21.9755 244.498 12.1168 232.489 6.29501 218.439C0.473274 204.389 -1.04997 188.928 1.91793 174.012C4.88583 159.097 12.2116 145.396 22.9687 134.642C33.7259 123.888 47.4314 116.565 62.352 113.598C77.2726 110.631 92.7383 112.154 106.793 117.974C120.848 123.794 132.861 133.649 141.313 146.294C149.765 158.939 154.276 173.805 154.276 189.013C154.255 209.4 146.144 228.946 131.724 243.362C117.303 257.777 97.7514 265.885 77.3579 265.906V265.906ZM77.3579 113.62C62.4412 113.618 47.859 118.038 35.4552 126.321C23.0515 134.604 13.3834 146.379 7.67367 160.155C1.96393 173.931 0.468963 189.09 3.37785 203.716C6.28675 218.341 13.4688 231.776 24.0158 242.321C34.5628 252.866 48.001 260.048 62.6309 262.957C77.2609 265.867 92.4254 264.375 106.207 258.669C119.988 252.963 131.768 243.299 140.055 230.901C148.343 218.502 152.766 203.925 152.766 189.013C152.745 169.026 144.794 149.863 130.657 135.729C116.52 121.595 97.3518 113.644 77.3579 113.62V113.62ZM77.3579 253.571C64.5875 253.571 52.1039 249.785 41.4857 242.692C30.8675 235.6 22.5917 225.519 17.7046 213.725C12.8176 201.93 11.5389 188.952 14.0303 176.431C16.5217 163.91 22.6712 152.409 31.7013 143.382C40.7313 134.355 52.2363 128.207 64.7613 125.717C77.2863 123.226 90.2689 124.504 102.067 129.39C113.866 134.275 123.95 142.548 131.045 153.163C138.139 163.778 141.926 176.257 141.926 189.023C141.905 206.135 135.095 222.54 122.991 234.638C110.886 246.737 94.4751 253.542 77.3579 253.561V253.571ZM77.3579 125.986C64.8862 125.986 52.6945 129.683 42.3246 136.61C31.9547 143.536 23.8724 153.381 19.0996 164.9C14.3269 176.419 13.0781 189.093 15.5113 201.322C17.9444 213.55 23.9501 224.782 32.769 233.598C41.5878 242.414 52.8238 248.418 65.0559 250.85C77.288 253.282 89.9669 252.034 101.489 247.263C113.012 242.492 122.86 234.412 129.789 224.045C136.718 213.679 140.416 201.491 140.416 189.023C140.406 172.305 133.76 156.274 121.937 144.45C110.115 132.626 94.0816 125.974 77.3579 125.956V125.986Z" fill="#2F2E41"/>
<path d="M267.393 127.195C254.864 127.195 242.616 123.481 232.199 116.523C221.781 109.564 213.661 99.6737 208.867 88.1021C204.072 76.5305 202.818 63.7974 205.262 51.513C207.706 39.2287 213.74 27.9448 222.599 19.0882C231.458 10.2317 242.746 4.20033 255.034 1.75682C267.323 -0.686688 280.06 0.567405 291.635 5.36052C303.211 10.1536 313.104 18.2705 320.065 28.6847C327.026 39.0989 330.741 51.3426 330.741 63.8676C330.723 80.6575 324.043 96.7544 312.167 108.627C300.29 120.499 284.188 127.177 267.393 127.195V127.195ZM267.393 2.04947C255.163 2.04947 243.207 5.67503 233.037 12.4677C222.868 19.2604 214.942 28.9151 210.262 40.2108C205.581 51.5066 204.357 63.9362 206.743 75.9278C209.129 87.9193 215.018 98.9343 223.667 107.58C232.315 116.225 243.334 122.113 255.329 124.498C267.324 126.883 279.758 125.659 291.058 120.98C302.357 116.301 312.015 108.378 318.81 98.212C325.605 88.046 329.231 76.0941 329.231 63.8676C329.213 47.4781 322.692 31.7652 311.099 20.1761C299.506 8.58691 283.788 2.06799 267.393 2.04947V2.04947ZM267.393 117.009C256.871 117.009 246.586 113.89 237.837 108.046C229.089 102.203 222.27 93.8968 218.244 84.1792C214.217 74.4616 213.164 63.7687 215.217 53.4525C217.269 43.1364 222.336 33.6604 229.776 26.2229C237.216 18.7853 246.695 13.7203 257.014 11.6683C267.334 9.61629 278.031 10.6694 287.751 14.6946C297.472 18.7198 305.78 25.5361 311.626 34.2818C317.472 43.0274 320.592 53.3094 320.592 63.8277C320.584 77.9334 314.978 91.4598 305.004 101.438C295.03 111.416 281.503 117.03 267.393 117.049V117.009ZM267.393 12.1559C257.17 12.1559 247.176 15.1864 238.676 20.8642C230.176 26.5419 223.551 34.6119 219.639 44.0537C215.727 53.4955 214.703 63.885 216.698 73.9083C218.692 83.9317 223.615 93.1387 230.844 100.365C238.072 107.592 247.282 112.513 257.309 114.507C267.336 116.5 277.729 115.477 287.173 111.566C296.618 107.655 304.691 101.032 310.371 92.535C316.05 84.0376 319.082 74.0474 319.082 63.8277C319.055 50.1353 313.6 37.0118 303.911 27.3336C294.222 17.6553 281.09 12.2117 267.393 12.1959V12.1559Z" fill="#2F2E41"/>
<path d="M328.991 306.032L332.641 303.713C376.91 275.723 371.76 237.736 371.7 237.376C370.42 193.992 323.641 188.804 323.162 188.754C305.742 189.163 292.412 184.325 283.573 174.449C268.773 157.924 271.933 132.623 271.963 132.373L273.463 132.573C273.463 132.813 270.363 157.445 284.703 173.449C293.242 182.976 306.252 187.614 323.221 187.254C323.801 187.304 371.88 192.612 373.22 237.236C373.27 237.526 378.34 274.443 336.851 302.773C341.131 301.874 347.621 300.584 349.651 300.584V302.094C346.751 302.094 333.361 305.093 333.231 305.093L328.991 306.032Z" fill="#2F2E41"/>
<path d="M336.911 288.832L329.37 299.381L330.599 300.258L338.14 289.709L336.911 288.832Z" fill="#2F2E41"/>
<path d="M327.139 308.109L326.725 309.561L337.284 312.572L337.699 311.12L327.139 308.109Z" fill="#2F2E41"/>
<path d="M277.993 147.398C274.923 137.802 277.893 130.944 277.993 130.654L279.363 131.264C279.363 131.334 276.513 137.922 279.363 146.938L277.993 147.398Z" fill="#2F2E41"/>
<path d="M283.993 140.011H282.493C282.493 132.243 285.593 129.015 285.723 128.925L286.793 129.984L286.263 129.454L286.793 129.984C286.793 129.984 283.993 132.953 283.993 140.011Z" fill="#2F2E41"/>
<path d="M259.103 284.75C259.103 284.75 259.513 294.226 254.233 299.065C253.973 299.307 253.811 299.636 253.778 299.99C253.745 300.344 253.843 300.698 254.053 300.984C256.253 304.063 263.173 311.73 273.533 304.353C273.533 304.353 285.963 296.066 277.053 283.62C277.053 283.62 268.153 292.297 259.103 284.75Z" fill="#F9B499"/>
<path d="M280.273 256.4C275.803 249.162 265.003 256.4 265.003 256.4C258.833 262.727 253.063 259.119 253.063 259.119C253.063 259.119 251.553 278.722 259.063 284.75C259.063 284.75 268.063 292.297 277.013 283.62C277.013 283.62 278.423 282.111 279.803 276.623C281.318 270.488 281.549 264.107 280.483 257.879L280.273 256.4Z" fill="#F9B499"/>
<path d="M243.994 290.788C243.994 290.788 240.994 284.79 245.504 280.231C245.504 280.231 248.503 278.482 245.504 275.583C245.504 275.583 239.504 271.184 243.994 265.157C243.994 265.157 247.663 262.707 246.193 258.929C245.677 257.718 245.444 256.405 245.514 255.09C245.804 251.751 247.363 246.333 254.513 246.633C256.017 246.748 257.483 247.162 258.823 247.853C260.453 248.632 263.703 249.342 268.493 246.623C268.493 246.623 277.613 241.445 281.173 249.532C281.173 249.532 280.173 253.091 287.752 256.11C287.752 256.11 297.622 259.239 293.442 270.485C292.312 273.277 290.318 275.634 287.752 277.212C287.752 277.212 304.752 284.51 292.472 295.936C292.472 295.936 283.232 290.788 281.723 290.788L280.133 290.688C280.133 290.688 279.933 288.518 277.053 283.62C277.053 283.62 283.353 274.793 280.273 256.4C280.273 256.4 276.933 249.162 265.003 256.4C263.576 258.085 261.641 259.262 259.487 259.752C257.334 260.243 255.079 260.02 253.063 259.119C253.063 259.119 251.553 278.722 259.063 284.75L258.753 289.198C253.779 288.433 248.691 288.981 243.994 290.788V290.788Z" fill="#2F2E41"/>
<path d="M145.216 139.441L132.997 125.716L134.127 124.716L143.906 135.712C145.477 117.797 149.087 100.119 154.666 83.0209C166.806 47.0336 186.665 25.6511 212.075 21.0428C209.995 18.6936 204.595 12.9556 200.725 12.1259L201.045 10.6564C206.405 11.796 213.794 20.7029 214.104 21.0827L214.944 22.0824L213.634 22.2923C151.996 31.9889 145.376 136.552 145.326 137.612L145.216 139.441Z" fill="#2F2E41"/>
<path d="M151.216 142.26C151.096 141.95 148.216 134.383 153.616 124.846L154.936 125.586C149.936 134.473 152.596 141.64 152.616 141.71L151.216 142.26Z" fill="#2F2E41"/>
<path d="M148.996 128.295L147.486 128.185C147.983 122.832 149.243 117.578 151.226 112.58L152.616 113.16C150.703 118.01 149.485 123.105 148.996 128.295V128.295Z" fill="#2F2E41"/>
<path d="M87.1577 203.338L94.6975 207.857L90.9276 251.351C90.9276 251.351 118.217 247.053 133.606 219.163C133.606 219.163 135.426 204.838 121.847 200.319C121.847 200.319 101.907 196.271 95.2875 188.494C95.2875 188.494 90.1776 200.319 87.1577 203.338Z" fill="#0071F2"/>
<path d="M85.5878 252.801C85.5878 252.801 87.1578 221.432 94.6978 207.817C94.6978 207.817 96.1378 196.691 90.1378 193.962L95.2878 188.454C97.0223 191.24 99.2847 193.662 101.948 195.581C103.603 196.699 104.836 198.34 105.449 200.241C106.062 202.142 106.019 204.194 105.328 206.067C105.084 206.727 104.8 207.372 104.478 207.997C104.478 207.997 111.288 201.789 112.798 204.798C112.798 204.798 97.9178 232.598 96.3078 249.612C96.3078 249.652 89.9978 252.521 85.5878 252.801Z" fill="#2F2E41"/>
<path d="M61.5184 209.366L69.5181 252.351C41.2389 248.532 26.9993 228.21 26.9993 228.21C27.1893 206.347 37.379 201.829 37.379 201.829C44.9188 200.319 65.9083 188.494 65.9083 188.494C65.9083 188.494 68.4182 196.631 66.7582 203.019C66.382 204.386 65.7207 205.659 64.8176 206.753C63.9145 207.847 62.7902 208.737 61.5184 209.366V209.366Z" fill="#0071F2"/>
<path d="M70.4081 253.201L69.4082 253.061C41.1689 249.282 26.5693 228.849 26.4093 228.649L26.2693 228.45V228.21C26.4593 206.107 36.659 201.329 37.089 201.139H37.249C44.5888 199.67 65.3483 188.004 65.5583 187.894L66.3783 187.434L66.6482 188.324C66.7582 188.664 69.2082 196.741 67.5082 203.258C67.1318 204.639 66.4832 205.93 65.6005 207.056C64.7178 208.182 63.6189 209.121 62.3683 209.816L70.4081 253.201ZM27.7692 227.97C37.9638 240.594 52.5067 248.957 68.5482 251.421L60.6784 208.926L61.1784 208.677C62.3471 208.094 63.3802 207.273 64.2106 206.265C65.041 205.258 65.6501 204.087 65.9983 202.829C67.2682 197.94 65.9983 191.882 65.4083 189.623C61.4084 191.862 44.4088 201.119 37.589 202.549C36.809 202.979 27.9992 208.027 27.7692 227.97V227.97Z" fill="#2F2E41"/>
<path d="M72.8682 241.265C68.2282 227.35 79.7682 218.123 79.8682 218.033L80.7982 219.223C80.3582 219.573 69.9782 227.9 74.2782 240.795L72.8682 241.265Z" fill="#2F2E41"/>
<path d="M96.2084 158.194V170.19C96.2084 175.698 96.0584 179.757 95.8784 182.636C95.7448 184.79 95.1825 186.896 94.2243 188.831C93.2662 190.765 91.9314 192.489 90.2984 193.902L90.1484 194.032C72.0184 204.298 65.9184 188.534 65.9184 188.534C62.1184 183.086 60.7684 173.359 60.2784 166.711C59.9784 162.583 60.0084 159.644 60.0084 159.644C69.0584 161.143 75.0884 158.134 75.0884 158.134C76.4602 156.82 78.142 155.873 79.9776 155.382C81.8132 154.891 83.7432 154.872 85.5884 155.325C86.5884 157.685 91.7884 157.195 94.5084 156.775C94.7159 156.74 94.9284 156.751 95.1314 156.806C95.3344 156.861 95.523 156.96 95.6845 157.094C95.8459 157.229 95.9763 157.397 96.0668 157.587C96.1572 157.777 96.2055 157.984 96.2084 158.194V158.194Z" fill="#F9B499"/>
<path d="M78.8584 198.23C77.2303 198.238 75.6131 197.964 74.0784 197.42C72.1137 196.648 70.3222 195.493 68.8081 194.022C67.2939 192.551 66.0873 190.795 65.2584 188.854C61.4484 183.345 60.0384 173.799 59.5284 166.741C59.2284 162.623 59.2584 159.634 59.2584 159.604V158.724L60.1284 158.864C65.0028 159.775 70.0355 159.294 74.6484 157.475C76.1094 156.09 77.8972 155.099 79.8451 154.592C81.7931 154.085 83.8377 154.079 85.7884 154.576L86.1284 154.676L86.2684 154.995C86.8584 156.325 89.8884 156.695 94.3784 155.995C94.6967 155.945 95.0221 155.964 95.3323 156.051C95.6425 156.138 95.9301 156.291 96.1753 156.5C96.4205 156.709 96.6175 156.969 96.7527 157.262C96.8879 157.554 96.958 157.872 96.9584 158.194V170.19C96.9584 174.958 96.8384 179.187 96.6184 182.676C96.4748 184.929 95.8856 187.132 94.8849 189.157C93.8842 191.182 92.4919 192.988 90.7884 194.472L90.6184 194.611C86.3317 197.031 82.4117 198.237 78.8584 198.23ZM60.7684 160.484C60.7684 161.653 60.8284 163.882 61.0384 166.631C61.5384 173.529 62.8984 182.846 66.5384 188.064L66.6284 188.224C66.6284 188.284 68.9284 193.982 74.6284 196.001C78.8984 197.53 84.0084 196.631 89.8084 193.352V193.292C91.3624 191.944 92.6329 190.301 93.5462 188.458C94.4595 186.614 94.9973 184.608 95.1284 182.556C95.3484 179.067 95.4584 174.898 95.4584 170.16V158.164C95.4599 158.06 95.4384 157.957 95.3955 157.862C95.3526 157.767 95.2892 157.683 95.21 157.615C95.1308 157.547 95.0376 157.498 94.9371 157.47C94.8365 157.442 94.7312 157.437 94.6284 157.455C90.9984 158.024 86.4984 158.184 85.0884 155.925C83.413 155.553 81.6712 155.602 80.0198 156.07C78.3685 156.538 76.8594 157.409 75.6284 158.604L75.4284 158.744C75.1884 158.944 69.4584 161.693 60.7684 160.484V160.484Z" fill="#2F2E41"/>
<path d="M226.384 96.5361C226.384 96.5361 236.474 75.1737 246.993 81.2115C246.993 81.2115 269.613 99.2951 290.732 78.2126C290.732 78.2126 305.192 73.4943 312.292 90.9281C312.292 90.9281 298.002 117.559 264.953 115.979C264.993 115.959 241.994 116.399 226.384 96.5361Z" fill="#0071F2"/>
<path d="M259.103 69.1458C259.103 69.1458 256.103 81.2115 247.034 81.2115C247.034 81.2115 269.653 99.2951 290.772 78.2126C290.772 78.2126 278.703 78.2126 275.693 67.6563L259.103 69.1458Z" fill="#F9B499"/>
<path d="M268.093 89.1287C255.943 89.1287 246.704 81.9113 246.564 81.7913L244.884 80.4518H246.994C255.343 80.4518 258.303 69.0758 258.323 68.9659L258.463 68.446L276.203 66.8266L276.373 67.4264C279.203 77.3229 290.622 77.4229 290.732 77.4229H292.552L291.262 78.7124C283.403 86.6296 275.243 89.1187 268.093 89.1287ZM249.094 81.7613C254.413 85.2901 271.953 94.6668 289.042 78.7624C285.553 78.3125 277.773 76.4032 275.143 68.406L259.673 69.8056C258.993 72.0548 256.123 80.3618 249.104 81.7613H249.094Z" fill="#2F2E41"/>
<path d="M266.643 73.6742C274.138 73.6742 280.213 64.2218 280.213 52.5616C280.213 40.9015 274.138 31.4491 266.643 31.4491C259.149 31.4491 253.073 40.9015 253.073 52.5616C253.073 64.2218 259.149 73.6742 266.643 73.6742Z" fill="#F9B499"/>
<path d="M256.293 66.2168C256.293 66.2168 240.154 75.8334 234.544 63.4478C234.544 63.4478 230.444 51.0522 241.004 48.0332C241.004 48.0332 241.004 8.83707 272.673 26.9307C272.673 26.9307 282.673 21.2327 290.122 28.76C290.882 29.5165 291.439 30.4514 291.742 31.4791C292.252 33.2485 292.482 36.2174 290.742 40.4759C290.742 40.4759 304.312 40.4759 296.742 55.5706C296.742 55.5706 292.512 64.5674 278.033 63.8676C278.033 63.8676 282.033 55.6405 278.843 43.5448C278.843 43.5448 275.633 43.5448 271.103 37.477C271.103 37.477 265.103 32.9586 260.543 42.0054C260.543 42.0054 259.923 46.5738 253.443 47.3035C253.503 47.3035 251.553 57.08 256.293 66.2168Z" fill="#2F2E41"/>
<path d="M96.1674 315.699C93.6147 315.747 91.0657 315.482 88.5776 314.909C77.8779 315.119 69.4581 311.8 63.6383 305.142C53.5385 293.577 53.9485 275.283 54.5785 268.076L46.4587 279.901L45.2087 279.052L56.9284 261.998L56.4185 265.267C56.4185 265.516 52.6986 290.328 64.7782 304.153C70.3081 310.481 78.3379 313.62 88.6576 313.4H88.7676H88.8876C89.1476 313.48 116.527 321.097 148.706 286.469C148.926 286.209 173.945 256.959 207.654 269.755L207.125 271.164C174.395 258.739 150.126 287.159 149.836 287.469C127.207 311.89 106.797 315.699 96.1674 315.699Z" fill="#2F2E41"/>
<path d="M46.3788 269.195L45.2988 268.136L52.5588 260.688L53.6389 261.738L46.3788 269.195Z" fill="#2F2E41"/>
<path d="M60.732 265.064L59.2432 265.316L61.218 276.975L62.7068 276.723L60.732 265.064Z" fill="#2F2E41"/>
<path d="M193.815 277.442L193.005 276.173C197.409 273.692 202.528 272.789 207.515 273.614L207.265 275.103C202.646 274.355 197.91 275.179 193.815 277.442V277.442Z" fill="#2F2E41"/>
<path d="M200.738 260.508L199.996 261.823L206.99 265.768L207.732 264.453L200.738 260.508Z" fill="#2F2E41"/>
<path d="M53.9988 206.347C53.9988 206.347 52.3688 197.55 65.9988 190.643L66.0588 192.782C66.0588 192.782 61.5388 206.347 64.5588 210.876L67.5588 207.877L71.4388 252.551L66.0388 251.781C66.0388 251.781 51.5688 213.925 48.2488 209.366C48.2488 209.366 47.9988 206.347 53.9988 206.347Z" fill="#2F2E41"/>
<path d="M215.705 17.444L214.205 17.2441C215.205 9.66678 211.415 5.6282 211.375 5.58821L212.455 4.58857C212.635 4.71852 216.835 9.09698 215.705 17.444Z" fill="#2F2E41"/>
<path d="M222.144 4.30867H220.634V14.1052H222.144V4.30867Z" fill="#2F2E41"/>
<path d="M77.608 253.671C74.8427 253.693 72.0802 253.489 69.3482 253.061L68.8282 252.971L60.7484 204.808L65.7483 186.344L66.6283 188.174C68.5482 192.172 71.3081 194.691 74.808 195.761C81.8079 197.9 89.7177 193.392 89.8077 193.352L90.3376 193.042L99.9974 203.748L91.5876 251.971L91.1076 252.091C86.687 253.155 82.1548 253.685 77.608 253.671V253.671ZM70.1382 251.671C76.8503 252.541 83.6629 252.23 90.2676 250.752L98.3874 204.228L89.9976 194.931C87.9977 195.931 80.9979 199.21 74.3681 197.181C70.8868 196.079 67.9574 193.691 66.1783 190.503L62.2884 204.928L70.1382 251.671Z" fill="#2F2E41"/>
<path d="M99.16 166.147C99.5474 162.841 97.8515 159.925 95.3721 159.635C92.8928 159.345 90.5688 161.79 90.1814 165.096C89.794 168.403 91.4899 171.319 93.9693 171.609C96.4487 171.899 98.7727 169.454 99.16 166.147Z" fill="#F9B499"/>
<path d="M265.043 308.221C258.923 308.221 254.853 303.403 253.433 301.424C253.119 300.987 252.975 300.45 253.028 299.914C253.082 299.379 253.329 298.881 253.723 298.515C258.723 293.966 258.353 284.88 258.343 284.79L258.273 283.08L259.583 284.18C267.993 291.177 276.193 283.42 276.533 283.08L277.163 282.47L277.673 283.18C280.463 287.079 281.513 290.987 280.823 294.806C279.673 301.104 274.193 304.803 273.953 304.983C271.401 306.978 268.282 308.112 265.043 308.221V308.221ZM259.843 286.229C259.723 289.228 258.963 295.726 254.743 299.594C254.619 299.711 254.542 299.869 254.527 300.039C254.512 300.209 254.561 300.378 254.663 300.514C256.993 303.773 263.433 310.591 273.103 303.713C273.173 303.663 278.313 300.154 279.343 294.496C279.913 291.317 279.103 288.029 276.913 284.71C274.713 286.519 267.423 291.457 259.843 286.259V286.229Z" fill="#2F2E41"/>
<path d="M267.723 288.518C264.428 288.435 261.241 287.319 258.613 285.329C250.863 279.132 252.253 259.878 252.313 259.069L252.413 257.829L253.463 258.479C253.683 258.609 258.813 261.668 264.463 255.88L264.583 255.78C264.843 255.6 271.043 251.491 276.233 252.621C277.207 252.829 278.126 253.237 278.932 253.821C279.738 254.405 280.413 255.15 280.913 256.01L281.013 256.28L281.263 257.769C282.358 264.099 282.123 270.588 280.573 276.822C279.183 282.331 277.763 283.97 277.573 284.14C276.306 285.488 274.781 286.57 273.09 287.322C271.399 288.074 269.574 288.48 267.723 288.518V288.518ZM253.723 260.268C253.543 264.407 253.383 279.262 259.533 284.16C259.893 284.46 268.183 291.157 276.533 283.08C276.533 283.08 277.823 281.551 279.113 276.463C280.606 270.426 280.831 264.146 279.773 258.019L279.553 256.68C279.158 256.021 278.631 255.452 278.004 255.008C277.378 254.564 276.666 254.255 275.913 254.1C271.593 253.161 266.123 256.58 265.483 256.989C260.593 261.958 255.843 261.038 253.763 260.268H253.723Z" fill="#2F2E41"/>
<path d="M90.0977 252.251L93.9076 208.267L85.9078 203.498L86.5878 202.809C89.4677 199.93 94.5076 188.324 94.5876 188.204L95.0676 187.094L95.8476 188.014C102.227 195.511 121.797 199.55 121.987 199.59C136.077 204.278 134.367 219.123 134.347 219.263L134.257 219.533C118.867 247.423 91.3177 252.071 91.0377 252.111L90.0977 252.251ZM88.3278 203.158L95.4976 207.457L91.7677 250.442C100.424 248.306 108.544 244.403 115.619 238.979C122.693 233.555 128.569 226.726 132.877 218.923C133.027 217.383 133.877 205.108 121.607 201.029C120.907 200.889 102.847 197.151 95.5176 189.843C94.2776 192.612 90.8677 200 88.3278 203.158V203.158Z" fill="#2F2E41"/>
<path d="M80.5183 219.443L80.1783 219.363C74.6783 218.023 67.3884 202.009 66.5684 200.19L67.9484 199.58C70.0184 204.208 76.1284 216.214 80.1884 217.783C81.395 216.736 82.3485 215.43 82.9772 213.962C83.6059 212.493 83.8935 210.902 83.8184 209.306C83.8184 209.126 83.3784 204.378 86.8184 202.659L87.4984 204.008C84.9884 205.268 85.3183 209.146 85.3283 209.186C85.4268 211.099 85.0682 213.008 84.2822 214.755C83.4962 216.502 82.3054 218.037 80.8083 219.233L80.5183 219.443Z" fill="#2F2E41"/>
<path d="M267.763 116.779C266.843 116.779 265.913 116.779 264.963 116.709H264.883C263.423 116.709 240.944 116.349 225.794 97.0059L225.504 96.6361L225.704 96.2162C225.974 95.6564 232.324 82.3711 240.464 79.812C241.605 79.4262 242.817 79.2926 244.015 79.4203C245.213 79.548 246.369 79.934 247.404 80.5517C248.404 81.3415 269.853 98.0356 290.242 77.6628L290.372 77.5328L290.542 77.4728C290.692 77.4728 305.752 72.7445 313.032 90.6282L313.162 90.9481L312.992 91.268C312.852 91.5279 298.922 116.779 267.763 116.779ZM264.993 115.2C295.272 116.629 309.782 93.7771 311.502 90.8581C305.042 75.4635 292.822 78.3825 291.182 78.8623C269.863 99.9649 246.794 81.9713 246.564 81.7913C245.717 81.304 244.776 81.0028 243.803 80.908C242.83 80.8132 241.849 80.9269 240.924 81.2415C234.164 83.3708 228.414 94.1769 227.274 96.4461C242.424 115.409 264.773 115.22 264.993 115.2Z" fill="#2F2E41"/>
<path d="M266.643 74.4239C258.743 74.4239 252.313 64.6174 252.313 52.5616C252.313 40.5059 258.743 30.6994 266.643 30.6994C274.543 30.6994 280.993 40.5059 280.993 52.5616C280.993 64.6174 274.543 74.4239 266.643 74.4239ZM266.643 32.2088C259.573 32.2088 253.823 41.3356 253.823 52.5616C253.823 63.7877 259.573 72.9145 266.643 72.9145C273.713 72.9145 279.463 63.7877 279.463 52.5616C279.463 41.3356 273.713 32.2088 266.643 32.2088Z" fill="#2F2E41"/>
</svg>
