<svg width="414" height="285" viewBox="0 0 414 285" fill="none" xmlns="http://www.w3.org/2000/svg">
<path d="M242.917 162.553C242.949 191.529 232.616 219.555 213.796 241.534C194.976 263.513 168.919 277.985 140.365 282.318C139.234 282.498 138.103 282.649 136.953 282.789C123.607 284.44 110.08 283.846 96.9284 281.033V281.033C72.3702 275.75 50.0641 262.916 33.1146 244.319C16.1651 225.722 5.41524 202.285 2.36118 177.271C2.18107 175.785 2.03097 174.259 1.9109 172.773C1.61738 169.427 1.47064 166.023 1.47064 162.563C1.47064 159.079 1.62072 155.645 1.93091 152.222C1.93091 151.569 2.03098 150.937 2.09101 150.284C2.73802 143.825 3.90589 137.428 5.58313 131.158C13.172 102.771 30.7868 78.1195 55.146 61.7966C79.5053 45.4736 108.948 38.5923 137.988 42.4345C167.029 46.2768 193.687 60.5806 212.997 82.6812C232.307 104.782 242.951 133.172 242.947 162.563L242.917 162.553Z" fill="white"/>
<path d="M156.895 233.725C156.895 233.725 151.341 240.693 130.879 241.265C127.853 241.299 124.918 242.305 122.504 244.136C120.856 245.329 119.635 247.023 119.024 248.968C118.413 250.913 118.443 253.003 119.112 254.929C119.112 254.929 125.115 271.585 107.034 273.101C107.034 273.101 97.2585 273.824 96.8483 281.022C72.29 275.74 49.984 262.906 33.0345 244.309C16.0849 225.712 5.33513 202.275 2.28107 177.261C6.28349 173.195 23.3438 158.075 40.7844 172.241C45.6417 176.284 49.3 181.587 51.3608 187.572C55.9235 200.343 70.1722 229.538 97.979 200.423C97.979 200.423 115.45 175.785 127.847 189.61C127.847 189.61 132.7 192.853 134.201 211.025C134.201 211.025 132.7 223.133 149.3 224.649C149.35 224.639 161.417 224.639 156.895 233.725Z" fill="#0071F2"/>
<path d="M5.55304 131.148C5.55304 131.148 26.3556 67.7568 92.3756 50.0366C91.9559 51.7823 91.3206 53.4687 90.4845 55.0565C89.6762 57.2894 89.6944 59.7393 90.5355 61.9599C91.3767 64.1804 92.9849 66.0239 95.0672 67.1545C95.0672 67.1545 102.071 72.7567 94.7871 78.2886C93.9138 78.9881 93.2175 79.8847 92.755 80.9053C92.2925 81.9259 92.0768 83.0418 92.1254 84.1619C92.1254 84.1619 91.0348 90.1858 95.0372 94.4427C96.2474 95.6676 97.7489 96.5626 99.3999 97.043C102.132 97.8863 107.975 100.306 105.634 105.015C105.634 105.015 99.63 115.617 70.9226 103.499C70.9226 103.499 60.3562 98.9505 51.3007 112.534C51.3007 112.534 32.3493 140.576 4.09216 131.098" fill="#B3D4FB"/>
<path d="M188.584 70.1865C188.584 70.1865 252.843 110.285 239.615 190.935C239.615 190.935 230.869 201.929 223.325 177.703C223.325 177.703 221.814 164.069 212.758 171.679C212.758 171.679 199.851 184.64 194.327 176.99C193.583 175.898 193.132 174.633 193.016 173.315C192.446 168.436 189.714 152.603 178.007 155.495C174.746 156.365 171.373 156.734 168.001 156.589C162.118 156.218 154.393 154.661 152.522 149.119C152.522 149.119 147.519 138.949 171.083 131.841C171.083 131.841 211.848 118.277 196.188 105.055C196.128 105.015 165.95 91.3604 188.584 70.1865Z" fill="#0071F2"/>
<path d="M123.875 141.81C122.727 138.722 122.153 135.448 122.184 132.152C122.654 130.299 122.876 128.392 122.844 126.48C122.828 125.79 122.673 125.111 122.39 124.482C122.107 123.853 121.701 123.288 121.196 122.82C120.691 122.352 120.098 121.99 119.451 121.757C118.804 121.523 118.117 121.422 117.431 121.46C112.888 121.701 106.714 124.271 102.932 126.048C101.074 126.961 99.3196 128.071 97.6988 129.361C94.3733 131.932 90.2572 133.257 86.0618 133.106C74.1346 133.939 81.8893 142.865 81.8893 142.865C82.7049 144.38 82.9702 146.133 82.6398 147.824C82.3094 149.514 81.4039 151.037 80.0782 152.131C80.0782 152.131 74.4147 157.453 79.4078 160.766C79.4078 160.766 84.4108 162.553 88.9335 153.467C90.7787 151.807 93.1382 150.836 95.6137 150.719C98.0892 150.602 100.529 151.346 102.522 152.824C105.358 154.115 108.415 154.848 111.527 154.983C121.943 154.983 124.285 150.967 124.615 147.101C124.796 145.304 124.542 143.489 123.875 141.81V141.81ZM109.356 142.865C105.604 142.865 102.562 141.178 102.562 139.08C102.562 136.981 105.564 135.295 109.356 135.295C113.148 135.295 116.14 136.991 116.14 139.08C116.14 141.168 113.078 142.865 109.356 142.865V142.865Z" fill="#B3D4FB"/>
<path d="M97.6086 281.946L96.7481 281.755C72.0152 276.483 49.5446 263.582 32.4817 244.859C15.4188 226.137 4.61772 202.529 1.59047 177.341C1.40036 175.845 1.25026 174.329 1.13019 172.813V172.432L1.41036 172.191C3.93188 169.932 17.1999 158.718 30.4279 160.143C36.5016 160.786 41.7048 163.998 45.8673 169.701C46.0574 169.942 50.5401 176.036 58.0346 194.088C58.0346 194.138 63.1177 204.057 72.2232 206.597C77.2262 208.003 82.6195 206.929 88.1729 203.395C91.4694 201.249 94.3342 198.501 96.618 195.293C101.891 188.094 107.204 183.526 112.878 181.347C115.03 180.51 117.331 180.125 119.638 180.219C121.945 180.312 124.208 180.881 126.286 181.889C128.502 182.973 130.476 184.494 132.091 186.363C133.706 188.231 134.927 190.408 135.682 192.762C137.175 197.695 137.851 202.84 137.683 207.993C137.633 208.465 136.782 218.033 150.971 220.914C151.101 220.914 157.145 220.914 159.226 224.709C160.527 227.058 159.946 230.241 157.505 234.167L157.425 234.267C157.145 234.588 150.32 242.018 130.889 242.068C130.889 242.068 123.884 242.851 120.883 247.208C120.167 248.317 119.706 249.571 119.533 250.88C119.36 252.19 119.479 253.521 119.882 254.778C119.972 255.019 122.584 262.389 118.992 268.011C116.81 271.434 112.818 273.422 107.144 273.894C107.044 273.894 97.9788 274.637 97.6486 281.103L97.6086 281.946ZM2.66111 173.074C2.78119 174.453 2.92128 175.819 3.08138 177.171C6.05766 201.902 16.6215 225.093 33.3111 243.535C50.0007 261.977 71.9906 274.758 96.2378 280.109C97.3484 273.081 106.934 272.358 107.034 272.348C112.207 271.916 115.81 270.179 117.731 267.168C120.913 262.148 118.481 255.26 118.451 255.2C117.581 251.686 118.001 248.724 119.682 246.305C123.124 241.385 130.529 240.562 130.839 240.522C148.85 240.522 155.724 233.855 156.294 233.273C158.385 229.88 158.946 227.249 157.935 225.412C156.284 222.4 150.931 222.4 150.861 222.4C135.091 219.227 136.192 207.963 136.202 207.822C136.351 202.862 135.692 197.911 134.251 193.164C133.55 191.004 132.422 189.007 130.933 187.296C129.443 185.584 127.625 184.193 125.586 183.205C123.692 182.287 121.63 181.768 119.529 181.682C117.427 181.596 115.33 181.943 113.368 182.703C107.975 184.791 102.882 189.178 97.7787 196.136C95.3838 199.499 92.3798 202.381 88.9233 204.63C82.9897 208.394 77.2263 209.529 71.7629 208.003C61.997 205.282 56.8239 195.092 56.6138 194.66C49.1893 176.789 44.6565 170.615 44.6065 170.564C40.6941 165.213 35.8612 162.201 30.2178 161.609C18.0704 160.344 5.68294 170.424 2.66111 173.074Z" fill="#2F2E41"/>
<path d="M238.294 191.759C235.265 191.882 232.307 190.824 230.039 188.807C226.036 185.122 225.466 178.918 225.456 175.554C225.483 173.253 224.828 170.996 223.575 169.069C223.101 168.236 222.454 167.516 221.676 166.957C220.899 166.399 220.011 166.017 219.072 165.836C216.311 165.424 213.739 167.292 213.289 167.643C206.064 177.743 200.601 177.683 199.771 177.572C198.898 177.662 198.016 177.55 197.194 177.243C196.372 176.937 195.63 176.445 195.028 175.805C191.486 172.07 192.316 163.617 192.426 162.573C192.322 161.131 191.931 159.725 191.274 158.438C190.617 157.151 189.709 156.01 188.604 155.083C184.862 152.131 179.678 152.714 179.598 152.724C158.215 154.27 153.943 147.202 153.773 146.901C152.925 145.984 152.31 144.876 151.979 143.67C151.648 142.464 151.611 141.196 151.872 139.973C153.533 132.132 166.56 125.817 167.111 125.546C190.475 116.751 193.947 112.213 193.987 112.173L194.167 111.982C197.529 109.623 199.17 107.133 199 104.553C198.68 99.2919 191.295 94.784 188.134 93.0873C185.731 91.8254 183.705 89.948 182.26 87.6457C175.516 76.4011 185.792 60.5382 186.262 59.8656L186.673 59.2431L187.293 59.6447C208.694 73.2843 225.311 93.2945 234.819 116.876C244.328 140.458 246.253 166.433 240.325 191.166L240.195 191.708H239.645C239.154 191.759 238.734 191.759 238.294 191.759ZM218.282 164.259C218.617 164.263 218.951 164.289 219.282 164.34C220.432 164.546 221.522 165.001 222.48 165.671C223.437 166.342 224.237 167.214 224.826 168.225C226.235 170.403 226.976 172.948 226.957 175.544C226.957 178.667 227.517 184.399 231.06 187.692C232.136 188.632 233.393 189.341 234.752 189.778C236.111 190.215 237.544 190.369 238.964 190.233C244.657 166.003 242.729 140.598 233.445 117.513C224.162 94.4268 207.98 74.7933 187.123 61.3113C185.302 64.3232 178.037 77.6159 183.571 86.8425C184.871 88.9149 186.698 90.6024 188.864 91.7319C192.246 93.5491 200.131 98.3883 200.521 104.412C200.701 107.525 198.9 110.436 195.148 113.107C194.447 113.95 189.865 118.558 167.721 126.891C167.651 126.891 154.873 133.126 153.363 140.234C153.154 141.256 153.196 142.314 153.485 143.316C153.775 144.319 154.303 145.235 155.024 145.987C155.144 146.158 159.256 152.633 179.478 151.168C179.668 151.168 185.282 150.495 189.484 153.838C190.762 154.895 191.813 156.202 192.571 157.68C193.33 159.157 193.781 160.774 193.897 162.432V162.643C193.897 162.733 192.896 171.368 196.088 174.741C196.543 175.228 197.107 175.6 197.734 175.825C198.36 176.05 199.031 176.123 199.691 176.036H199.781H199.871C199.871 176.036 204.984 176.619 212.078 166.649L212.208 166.508C213.939 165.128 216.062 164.333 218.272 164.239L218.282 164.259Z" fill="#2F2E41"/>
<path d="M8.4548 132.012C6.61369 132.012 5.52303 131.911 5.45299 131.901L4.57245 131.811L4.80258 130.957C10.3887 110.052 21.4222 91.0158 36.7691 75.8059C52.116 60.596 71.2228 49.7609 92.1254 44.4143L92.8759 44.2235L93.046 44.9866C93.7222 48.5702 93.0445 52.2781 91.1448 55.3878C88.4732 62.2149 95.1473 66.3312 95.3874 66.5019C97.5888 68.2689 98.6994 70.1664 98.7494 72.1945C98.8295 75.0156 96.8683 77.375 95.2173 78.8508C94.1207 79.7794 93.3348 81.0236 92.9659 82.415C91.8653 87.1036 96.5881 89.0814 96.7883 89.1617C100.891 90.3364 103.983 92.1737 105.904 94.5029C106.432 95.1411 106.82 95.8846 107.04 96.6842C107.261 97.4837 107.31 98.3212 107.185 99.1413C107.052 99.972 106.748 100.766 106.291 101.471C105.834 102.177 105.236 102.778 104.533 103.238C95.4074 109.261 73.0539 101.511 72.1133 101.179C57.7847 95.4366 47.4684 114.231 47.3684 114.452C35.181 130.385 15.8193 132.012 8.4548 132.012ZM6.52363 130.455C11.2065 130.666 33.0297 130.716 46.1276 113.639C46.1276 113.538 57.1343 93.5592 72.6537 99.7638C72.8538 99.834 95.2173 107.585 103.722 101.973C104.249 101.641 104.7 101.201 105.045 100.682C105.39 100.163 105.621 99.576 105.724 98.9606C105.82 98.3502 105.784 97.7263 105.62 97.1306C105.456 96.535 105.168 95.9814 104.773 95.5069V95.5069C103.052 93.3985 100.21 91.762 96.338 90.6476C94.1367 89.7641 90.4144 86.8927 91.5351 82.1138C91.9749 80.4211 92.9256 78.9062 94.2567 77.7766C95.4174 76.7726 97.3486 74.6442 97.2585 72.2748C97.2585 70.7186 96.308 69.2126 94.5469 67.797C94.5469 67.797 86.5421 62.8775 89.784 54.8055L89.8641 54.675C91.3991 52.1114 92.0562 49.1144 91.7352 46.1412C71.4191 51.4811 52.8562 62.0791 37.9025 76.8753C22.9489 91.6714 12.1286 110.147 6.52363 130.455V130.455Z" fill="#2F2E41"/>
<path d="M122.184 284.456C113.635 284.456 105.11 283.558 96.7482 281.775L96.1479 281.625C71.546 276.25 49.2227 263.321 32.2778 244.635C15.3329 225.949 4.60744 202.433 1.59062 177.351C1.4005 175.855 1.25041 174.339 1.13033 172.823C0.840157 169.4 0.690063 165.946 0.690063 162.553C0.690063 159.159 0.840161 155.525 1.15035 152.141C1.15035 151.549 1.2404 150.957 1.30043 150.344C3.58889 127.659 12.1727 106.073 26.0767 88.0385C39.9806 70.0037 58.6472 56.2434 79.9556 48.321C101.264 40.3986 124.36 38.6317 146.619 43.2211C168.878 47.8105 189.408 58.5722 205.876 74.2834C222.344 89.9946 234.091 110.025 239.78 132.1C245.47 154.175 244.875 177.408 238.063 199.16C231.251 220.912 218.495 240.311 201.244 255.153C183.993 269.995 162.939 279.685 140.475 283.121C139.344 283.302 138.203 283.452 137.043 283.593C132.112 284.185 127.15 284.473 122.184 284.456V284.456ZM97.6588 280.44C110.553 283.109 123.794 283.655 136.862 282.057C138.003 281.926 139.124 281.775 140.245 281.595C187.973 274.366 227.597 237.871 238.844 190.775C242.711 174.733 243.251 158.065 240.428 141.805C237.606 125.546 231.482 110.042 222.437 96.2571C213.393 82.472 201.62 70.6997 187.851 61.6713C174.081 52.643 158.609 46.5513 142.395 43.7747C126.18 40.998 109.57 41.5956 93.5957 45.5303C77.6213 49.4651 62.6235 56.653 49.5339 66.6477C36.4443 76.6423 25.5422 89.2304 17.5047 103.63C9.46719 118.03 4.46589 133.934 2.81136 150.354C2.74132 151.077 2.69128 151.67 2.65126 152.262C2.35108 155.655 2.20099 159.119 2.20099 162.553C2.20099 165.986 2.34107 169.32 2.63124 172.693C2.75131 174.209 2.90142 175.705 3.08153 177.171C6.07992 202.043 16.7514 225.353 33.6033 243.841C50.4553 262.328 72.6448 275.069 97.0684 280.28L97.6588 280.44Z" fill="#2F2E41"/>
<path d="M80.5485 161.639C80.0911 161.646 79.6353 161.582 79.1976 161.448L79.0375 161.358C78.3829 160.984 77.8258 160.459 77.4119 159.828C76.998 159.196 76.739 158.475 76.6561 157.724C76.386 154.601 79.4778 151.7 79.6579 151.549C80.8603 150.575 81.6854 149.21 81.9906 147.69C82.2957 146.17 82.0617 144.591 81.3289 143.226C81.2589 143.166 77.7067 139.009 79.0576 135.726C79.8781 133.718 82.2495 132.594 86.0618 132.323C90.0923 132.444 94.0419 131.172 97.2486 128.719C98.9112 127.392 100.713 126.251 102.622 125.315C106.864 123.307 112.868 120.898 117.401 120.667C118.185 120.617 118.971 120.729 119.711 120.994C120.451 121.26 121.129 121.675 121.703 122.213C122.287 122.751 122.756 123.402 123.082 124.127C123.409 124.851 123.586 125.634 123.605 126.429C123.642 128.381 123.42 130.33 122.944 132.222C122.927 135.385 123.479 138.524 124.575 141.489V141.489C125.326 143.269 125.632 145.206 125.466 147.132C124.975 152.904 120.463 155.706 111.627 155.706C108.387 155.582 105.202 154.825 102.252 153.477C100.418 152.074 98.1575 151.35 95.8529 151.427C93.5483 151.504 91.3409 152.377 89.6039 153.898C86.2019 160.635 82.4896 161.639 80.5485 161.639ZM79.778 160.043C80.3784 160.193 84.4108 160.906 88.3032 153.105L88.4533 152.894C90.4302 151.126 92.9506 150.091 95.5955 149.959C98.2405 149.828 100.851 150.608 102.992 152.172V152.172C105.718 153.373 108.643 154.054 111.617 154.18C122.124 154.18 123.695 150.073 123.955 146.991C124.092 145.306 123.824 143.612 123.174 142.051C121.983 138.865 121.39 135.485 121.423 132.082V131.921C121.885 130.152 122.107 128.328 122.084 126.5C122.07 125.906 121.937 125.32 121.693 124.778C121.449 124.237 121.098 123.75 120.663 123.347C120.234 122.949 119.729 122.643 119.179 122.446C118.628 122.249 118.044 122.167 117.461 122.203C112.948 122.434 106.614 125.124 103.242 126.711C101.432 127.599 99.7245 128.683 98.1491 129.943C94.6971 132.621 90.4223 134.005 86.0618 133.859C83.9605 134.02 81.1588 134.572 80.4284 136.329C79.5979 138.337 81.6691 141.349 82.5297 142.353C83.463 144.02 83.7877 145.962 83.448 147.844C83.1083 149.726 82.1255 151.43 80.6685 152.664C80.6685 152.664 77.9869 155.224 78.187 157.613C78.2441 158.119 78.4175 158.604 78.6936 159.031C78.9697 159.458 79.341 159.815 79.778 160.073V160.043ZM109.356 143.598C105.123 143.598 101.811 141.59 101.811 139.05C101.811 136.509 105.123 134.512 109.356 134.512C113.588 134.512 116.9 136.52 116.9 139.05C116.9 141.58 113.588 143.628 109.356 143.628V143.598ZM109.356 136.028C105.794 136.028 103.352 137.624 103.352 139.039C103.352 140.455 105.834 142.051 109.356 142.051C112.878 142.051 115.36 140.455 115.36 139.039C115.36 137.624 112.908 136.058 109.356 136.058V136.028Z" fill="#2F2E41"/>
<path d="M173.225 255.782C173.058 255.793 172.891 255.793 172.724 255.782C170.853 255.602 169.362 254.417 168.292 252.268C167.991 251.666 166.971 248.323 176.026 240.743C176.126 240.672 182.09 236.265 182.46 231.506C182.518 230.612 182.372 229.716 182.034 228.886C181.696 228.057 181.175 227.315 180.509 226.717C180.169 226.435 179.808 226.18 179.428 225.954C176.687 224.177 170.273 220.021 174.295 209.258C174.375 209.107 176.427 205.583 175.206 202.15C174.78 201.048 174.068 200.08 173.145 199.346C172.221 198.611 171.119 198.138 169.953 197.973C167.691 197.602 163.719 196.407 162.428 192.622C162.057 191.413 162.009 190.126 162.29 188.893C162.571 187.659 163.171 186.521 164.029 185.594C166.711 182.582 174.235 176.428 186.042 184.701L186.212 184.871C186.323 185.012 196.909 199.057 209.597 192.793C209.727 192.712 213.869 190.373 218.112 191.658C219.422 192.098 220.625 192.81 221.642 193.747C222.659 194.685 223.468 195.827 224.015 197.1L224.075 197.29C224.145 197.612 225.566 205.322 217.912 216.045C217.912 216.045 216.401 218.495 216.461 223.585C216.887 225.031 217.001 226.553 216.794 228.047C216.586 229.541 216.064 230.974 215.26 232.249C212.679 236.205 207.255 238.494 199.25 239.076C196.321 239.304 193.486 240.212 190.967 241.73C188.449 243.248 186.317 245.333 184.742 247.821C184.401 248.152 178.428 255.772 173.225 255.782ZM174.665 182C172.849 182.03 171.06 182.452 169.42 183.237C167.78 184.021 166.327 185.151 165.16 186.548V186.548C164.474 187.276 163.992 188.173 163.763 189.148C163.535 190.123 163.568 191.142 163.859 192.1C164.86 195.112 168.272 196.116 170.193 196.447C171.627 196.656 172.98 197.245 174.111 198.154C175.242 199.063 176.111 200.259 176.627 201.618C178.088 205.734 175.746 209.72 175.626 209.89C172.094 219.388 177.387 222.812 180.229 224.649C180.7 224.941 181.142 225.277 181.55 225.653C182.372 226.403 183.014 227.33 183.428 228.365C183.842 229.399 184.017 230.514 183.941 231.627C183.511 237.088 177.207 241.747 176.937 241.938C168.762 248.785 169.632 251.606 169.642 251.626C170.453 253.262 171.514 254.146 172.844 254.276C176.567 254.658 181.76 249.096 183.441 246.917C189.605 237.651 198.74 237.54 199.13 237.54C206.615 237.008 211.608 234.94 213.929 231.416C214.609 230.311 215.049 229.075 215.222 227.788C215.394 226.501 215.295 225.192 214.93 223.946L214.88 223.705C214.8 218.013 216.521 215.282 216.601 215.171C223.415 205.593 222.665 198.525 222.544 197.652C222.083 196.592 221.407 195.639 220.559 194.855C219.712 194.07 218.712 193.471 217.622 193.094C213.999 191.989 210.267 194.098 210.227 194.098C196.989 200.664 186.042 187.18 185.012 185.845C181.009 183.014 177.557 182 174.665 182Z" fill="#2F2E41"/>
<path d="M171.984 197.381C171.984 197.381 164.769 193.767 167.511 188.676C168.322 187.234 169.666 186.169 171.253 185.715C173.705 185.002 177.977 184.861 183.261 189.249C184.244 190.091 185.151 191.018 185.972 192.02C188.378 194.901 191.518 197.073 195.058 198.304C198.114 199.224 201.382 199.151 204.393 198.094C208.396 196.758 216.701 194.64 218.232 199.098C218.232 199.098 221.784 203.475 215.75 212.561C213.364 215.759 212.196 219.709 212.458 223.695C212.458 223.695 212.809 237.058 198.92 235.934C197.588 235.79 196.242 235.821 194.918 236.024C192.39 236.478 189.983 237.454 187.849 238.888C185.715 240.322 183.901 242.184 182.52 244.357C182.52 244.357 177.147 252.981 171.844 252.951C171.38 252.926 170.929 252.784 170.535 252.538C170.141 252.291 169.815 251.948 169.588 251.541C169.361 251.135 169.241 250.677 169.238 250.21C169.235 249.744 169.35 249.285 169.572 248.875C170.646 246.992 172.018 245.296 173.635 243.855C173.635 243.855 188.554 233.725 181.009 226.155C181.009 226.155 170.443 221.617 175.006 209.499C175.006 209.499 179.528 201.929 171.984 197.381Z" fill="#B3D4FB"/>
<path d="M108.665 141.479C108.246 140.409 108.079 139.255 108.178 138.109C108.277 136.963 108.639 135.855 109.236 134.873C111.577 131.078 117.381 128.949 126.476 128.548C130.711 128.387 134.72 126.588 137.663 123.528C142.666 118.287 147.619 107.464 142.576 85.4871C142.396 84.9751 123.304 27.1157 170.143 4.37554C170.583 4.17474 213.389 -15.0113 249.561 33.3805C249.711 33.6416 257.736 49.1732 274.216 54.4641C285.152 57.968 297.33 56.2512 310.398 49.384C310.398 49.384 312.169 48.129 314.58 46.0909C312.627 44.6346 311.019 42.7619 309.874 40.6074C308.729 38.453 308.074 36.0705 307.956 33.6315C307.076 19.5758 315.401 15.2989 320.444 13.9937C321.803 13.6479 323.233 13.6996 324.565 14.1425C325.896 14.5855 327.074 15.4012 327.958 16.4936C329.056 17.8018 329.862 19.331 330.321 20.978C330.78 22.625 330.882 24.3516 330.62 26.0414C329.559 33.6115 322.465 41.1815 317.152 45.8902C321.594 48.1692 326.978 47.8178 333.161 44.8259C336.675 43.0942 339.888 40.8059 342.677 38.0491L360.078 21.1922C360.288 20.9513 384.863 -6.28674 413.69 4.3655L413.17 5.79115C385.303 -4.5097 361.408 21.9653 361.138 22.2364L343.758 39.1534C340.851 42.0166 337.503 44.3898 333.842 46.1813C325.497 50.1972 319.643 49.0125 315.931 46.9343C313.359 49.123 311.418 50.4984 311.178 50.6591C297.65 57.7773 285.082 59.5242 273.745 55.8898C256.655 50.4181 248.36 34.3444 248.28 34.1837C212.939 -13.0837 171.233 5.56024 170.793 5.751C125.165 27.9089 143.827 84.5133 144.027 85.0655C149.24 107.755 144.027 119.07 138.754 124.582C135.537 127.918 131.16 129.879 126.536 130.054C115.9 130.526 111.957 133.347 110.527 135.636C110.047 136.409 109.754 137.282 109.668 138.188C109.583 139.094 109.709 140.008 110.036 140.857L108.665 141.479ZM322.255 15.2687C321.772 15.2688 321.291 15.3295 320.824 15.4494C316.231 16.6442 308.646 20.5697 309.457 33.5211C309.561 35.741 310.153 37.9104 311.191 39.8736C312.229 41.8368 313.687 43.5452 315.461 44.8761L315.721 45.0468C320.894 40.5088 328.078 32.999 329.079 25.8105C329.311 24.3272 329.224 22.811 328.821 21.3646C328.419 19.9183 327.712 18.5755 326.747 17.4273C326.202 16.7597 325.516 16.2204 324.74 15.8474C323.964 15.4744 323.115 15.2769 322.255 15.2687Z" fill="#2F2E41"/>
</svg>
