<svg width="1920" height="1080" viewBox="0 0 1920 1080" fill="none" xmlns="http://www.w3.org/2000/svg">
<path fill-rule="evenodd" clip-rule="evenodd" d="M1196.34 49.2889C1417.41 45.7299 1635.74 -23.1528 1834.66 8.40874C2029.88 39.3847 2129.83 124.532 2114.46 194.968C2099.68 262.685 1802.56 291.169 1758.46 357.526C1719.65 415.932 1941.3 469.898 1893.41 527.588C1841.64 589.95 1699.17 665.396 1500.63 668.103C1285.97 671.03 1220.15 550.837 1008.08 539.659C741.311 525.599 491.808 630.635 236.862 601.493C-14.0758 572.81 -216.797 484.312 -231.395 397.98C-246.031 311.419 8.20763 248.265 165.289 178.204C291.916 121.728 396.738 53.4165 597.401 28.3269C788.687 4.40971 991.638 52.5843 1196.34 49.2889Z" fill="#2F2E41"/>
<path fill-rule="evenodd" clip-rule="evenodd" d="M1039.34 1030.09C1260.41 1027 1478.74 967.239 1677.66 994.621C1872.88 1021.5 1972.83 1095.37 1957.46 1156.47C1942.68 1215.22 1645.56 1239.94 1601.46 1297.51C1562.65 1348.18 1784.3 1395 1736.41 1445.05C1684.64 1499.15 1542.17 1564.61 1343.63 1566.95C1128.97 1569.49 1063.15 1465.22 851.077 1455.52C584.311 1443.32 334.808 1534.45 79.8624 1509.17C-171.076 1484.28 -373.797 1407.5 -388.395 1332.6C-403.031 1257.5 -148.792 1202.71 8.28938 1141.93C134.916 1092.93 239.738 1033.67 440.401 1011.9C631.687 991.152 834.638 1032.95 1039.34 1030.09Z" stroke="#2F2E41"/>
<path fill-rule="evenodd" clip-rule="evenodd" d="M1028.34 992.782C1249.41 989.694 1467.74 929.934 1666.66 957.316C1861.88 984.19 1961.83 1058.06 1946.46 1119.17C1931.68 1177.92 1634.56 1202.63 1590.46 1260.2C1551.65 1310.87 1773.3 1357.69 1725.41 1407.74C1673.64 1461.85 1531.17 1527.3 1332.63 1529.65C1117.97 1532.19 1052.15 1427.91 840.077 1418.21C573.311 1406.02 323.808 1497.14 68.8624 1471.86C-182.076 1446.97 -384.797 1370.2 -399.395 1295.3C-414.031 1220.2 -159.792 1165.41 -2.71062 1104.63C123.916 1055.63 228.738 996.363 429.401 974.596C620.687 953.846 823.638 995.641 1028.34 992.782Z" fill="#2F2E41"/>
<path fill-rule="evenodd" clip-rule="evenodd" d="M1024.19 989.464C1227.75 986.617 1428.79 931.508 1611.94 956.758C1791.7 981.54 1883.73 1049.66 1869.58 1106.01C1855.97 1160.19 1582.39 1182.98 1541.78 1236.07C1506.04 1282.79 1710.14 1325.97 1666.04 1372.12C1618.37 1422.01 1487.19 1482.37 1304.37 1484.54C1106.73 1486.88 1046.11 1390.72 850.843 1381.78C605.209 1370.53 375.47 1454.56 140.721 1431.25C-90.339 1408.3 -277.001 1337.5 -290.443 1268.43C-303.92 1199.18 -69.8207 1148.65 74.8176 1092.6C191.413 1047.42 287.931 992.766 472.699 972.694C648.832 953.559 835.706 992.1 1024.19 989.464Z" stroke="white" stroke-dasharray="500 500"/>
<rect y="272" width="1920" height="880" fill="#2F2E41"/>
<path d="M1432.32 -75.0022C1682.04 -132.849 1529.88 -164.214 1418.51 -201.75H1511.63C1613.79 -164.887 1795.2 -81.4658 1703.51 -42.684C1611.82 -3.90222 1708.96 47.5376 1769 68.4097L-31 249.155C70.8215 220.372 14 -313.344 311 -181.344C555.6 -72.6333 745.667 84.064 1432.32 -75.0022Z" fill="#2F2E41"/>
<path d="M1381 -35.8444C1648.67 -97.9268 1538.18 -159.17 1418.8 -199.455H1518.62C1628.13 -159.893 1822.58 -70.3632 1724.3 -28.7415C1626.01 12.8801 1730.15 68.0868 1794.5 90.4873L-56 224.28C53.1459 193.389 50 -244.344 198.5 -217.844C478.063 -167.956 644.951 134.87 1381 -35.8444Z" stroke="#2F2E41"/>
<path d="M132.5 -102.5C138.667 -119.5 175.222 -180 218 -180C260 -180 362.333 -136.667 379.5 -128M1664 -4.49995C1658.17 -18.1666 1655.1 -47.8 1689.5 -57C1723.9 -66.2 1716.17 -87.1666 1708 -96.5M1042 8.49998C1109.17 13.1667 1261.4 -9.30001 1325 -30.5" stroke="white" stroke-width="2"/>
</svg>
